<?xml version="1.0" encoding="UTF-8"?><svg id="Layer_1" xmlns="http://www.w3.org/2000/svg" viewBox="0 0 750 144.5"><defs><style>.cls-1{fill:none;stroke:#42210b;stroke-miterlimit:10;stroke-width:3px;}.cls-2{fill:#cf5f38;}.cls-3{fill:#daca8d;}.cls-4{fill:#d29345;}.cls-5{fill:#5d2325;}</style></defs><rect class="cls-3" x="-.5" y=".5" width="759" height="144"/><rect class="cls-4" x="-21.06" y="40.49" width="46.55" height="18.34" transform="translate(4.42 99.31) rotate(180)"/><rect class="cls-4" x="-12.51" y="20.74" width="33.17" height="18.34" transform="translate(8.16 59.82) rotate(180)"/><rect class="cls-4" x="-12.56" y="60.23" width="33.17" height="18.34" transform="translate(8.05 138.8) rotate(180)"/><rect class="cls-4" x="-21.77" y="79.98" width="46.55" height="18.34" transform="translate(3.01 178.3) rotate(180)"/><rect class="cls-4" x="-12.56" y="99.73" width="33.17" height="18.34" transform="translate(8.06 217.79) rotate(180)"/><rect class="cls-2" x="21.69" y="20.59" width="49.84" height="18.34" transform="translate(93.23 59.51) rotate(180)"/><rect class="cls-2" x="26.63" y="40.33" width="32.91" height="18.34" transform="translate(86.17 99) rotate(180)"/><rect class="cls-2" x="21.62" y="60.26" width="32.07" height="18.34" transform="translate(75.32 138.85) rotate(180)"/><rect class="cls-2" x="25.85" y="80.01" width="37.01" height="18.34" transform="translate(88.72 178.35) rotate(180)"/><rect class="cls-2" x="21.72" y="99.67" width="49.61" height="18.34" transform="translate(93.04 217.68) rotate(180)"/><g><path class="cls-5" d="M132.16,56.92h10.05c.22,.48,.33,.96,.33,1.44s-.08,.79-.25,.96c-.17,.18-.44,.26-.82,.26h-1.5c-.06,1.66-.09,4.44-.08,8.34h9.66c-.01-3.9-.06-6.68-.14-8.34h-2.2c-.22-.57-.33-1.11-.33-1.63,0-.36,.09-.62,.28-.79,.19-.16,.47-.24,.85-.24h10.05c.22,.48,.33,.96,.33,1.44s-.08,.79-.25,.96c-.17,.18-.43,.26-.8,.26h-1.69c-.08,1.66-.11,4.39-.1,8.2,0,7.01,.04,11.35,.12,13h2.39c.22,.47,.33,.95,.33,1.44,0,.45-.08,.77-.25,.95-.17,.18-.43,.27-.8,.27h-10.13c-.22-.57-.33-1.12-.33-1.65,0-.35,.09-.61,.28-.77s.47-.24,.85-.24h1.42c.06-1.37,.1-4.58,.12-9.62h-9.66c.01,5.04,.04,8.25,.1,9.62h2.22c.22,.47,.33,.95,.33,1.44,0,.45-.08,.77-.25,.95s-.44,.27-.82,.27h-10.11c-.23-.57-.35-1.12-.35-1.65,0-.35,.1-.61,.29-.77s.48-.24,.86-.24h1.61c.06-1.66,.1-6,.1-13.02-.01-3.8-.05-6.52-.12-8.18h-2.39c-.23-.57-.35-1.11-.35-1.63,0-.36,.1-.62,.29-.79,.19-.16,.48-.24,.86-.24Z"/><path class="cls-5" d="M162.37,71.42c0-5.05,1.18-8.8,3.53-11.24,2.35-2.44,5.56-3.65,9.63-3.65,3.84,0,6.75,.89,8.74,2.67,1.99,1.78,2.98,5.03,2.98,9.75,0,5.05-1.18,8.8-3.53,11.24-2.35,2.44-5.62,3.65-9.81,3.65-3.73,0-6.59-.89-8.57-2.67-1.98-1.78-2.97-5.03-2.97-9.75Zm6.69-1.89c0,4.16,.52,6.96,1.57,8.41,1.05,1.45,2.51,2.17,4.39,2.17s3.38-.7,4.24-2.11c.85-1.41,1.28-3.79,1.28-7.16,0-4.28-.52-7.11-1.56-8.49s-2.51-2.08-4.4-2.08-3.38,.7-4.24,2.11c-.85,1.41-1.28,3.79-1.28,7.16Z"/><path class="cls-5" d="M208.07,79.64c0-2.46-.03-3.99-.08-4.6s-.13-1.03-.22-1.29c-.1-.26-.25-.44-.47-.55-.21-.11-.48-.17-.81-.17-.23-.44-.35-.87-.35-1.3,0-.51,.11-.86,.34-1.07,.23-.21,.62-.31,1.18-.31h4.24c.87,0,1.45,.14,1.75,.43,.3,.29,.45,.86,.45,1.73v4.06c0,1.71,.06,3.94,.19,6.69-.71,.13-1.57,.19-2.58,.19-.27,0-.77-.45-1.5-1.36-2.38,1.17-4.83,1.75-7.33,1.75-4,0-6.89-.98-8.67-2.94-1.78-1.96-2.66-5.12-2.66-9.49,0-5.05,1.18-8.8,3.53-11.24,2.35-2.44,5.75-3.65,10.2-3.65,2.79,0,4.7,.2,5.75,.59,1.05,.4,1.57,1.11,1.57,2.15s-.4,2-1.21,3.01c-2.58-1.35-5.09-2.02-7.52-2.02-1.8,0-3.19,.64-4.17,1.92-.98,1.28-1.47,3.71-1.47,7.27,0,4.17,.48,6.99,1.44,8.46,.96,1.46,2.62,2.2,5,2.2,1.14,0,2.27-.16,3.4-.47Z"/><path class="cls-5" d="M246.73,56.92h7.81c.23,.48,.35,.96,.35,1.44s-.08,.79-.25,.96c-.17,.18-.44,.26-.82,.26h-.93c-.73,2.76-1.76,6.98-3.11,12.67-1.35,5.69-2.31,9.04-2.88,10.05s-1.83,1.52-3.77,1.52c-2.29,0-3.55-.07-3.78-.21-.23-.14-.86-3.35-1.89-9.63-1.03-6.28-1.58-9.42-1.64-9.42s-.59,2.71-1.56,8.12c-.98,5.41-1.75,8.62-2.32,9.63s-1.83,1.52-3.77,1.52c-2.06,0-3.2-.07-3.42-.21s-1.08-3.48-2.58-10.02c-1.5-6.54-2.69-11.21-3.59-14.01h-1.63c-.22-.57-.33-1.11-.33-1.63,0-.36,.1-.62,.29-.79,.19-.16,.48-.24,.85-.24h9.66c.22,.48,.33,.96,.33,1.44s-.08,.79-.25,.96c-.17,.18-.44,.26-.82,.26h-.95c.14,1.66,.7,5.18,1.67,10.56,.97,5.38,1.58,8.08,1.83,8.08s.97-3.48,2.18-10.44c1.21-6.96,1.91-10.51,2.13-10.65s1.7-.21,4.46-.21c.97,0,1.64,.19,2.01,.57,.37,.38,1.13,3.93,2.28,10.65s1.85,10.08,2.09,10.08,.81-2.66,1.7-7.99c.89-5.33,1.39-8.88,1.48-10.65h-1.63c-.23-.57-.35-1.11-.35-1.63,0-.36,.1-.62,.29-.79,.19-.16,.48-.24,.86-.24Z"/><path class="cls-5" d="M266.93,56.55c2.16,0,3.39,.07,3.67,.21,.28,.14,1.56,3.55,3.83,10.21,2.27,6.67,3.91,11.27,4.92,13.81h1.83c.22,.47,.33,.95,.33,1.44,0,.45-.08,.77-.25,.95-.17,.18-.44,.27-.82,.27h-9.93c-.22-.57-.33-1.12-.33-1.65,0-.35,.1-.61,.29-.77s.48-.24,.86-.24h.86c-.19-.93-.69-2.79-1.5-5.58h-8.24c-.73,2.72-1.18,4.58-1.36,5.58h1.85c.22,.47,.33,.95,.33,1.44,0,.45-.08,.77-.25,.95-.17,.18-.43,.27-.8,.27h-8.48c-.22-.57-.33-1.12-.33-1.65,0-.35,.09-.61,.28-.77,.19-.16,.47-.24,.84-.24h1.05c.92-2.5,2.31-6.56,4.17-12.18s3.09-9.03,3.7-10.24c.61-1.21,1.77-1.82,3.48-1.82Zm-3.63,15.41h6.43c-1.98-6.53-3.09-9.8-3.33-9.8s-1.27,3.27-3.1,9.8Z"/><path class="cls-5" d="M292.68,80.79h2.82c.22,.47,.33,.95,.33,1.44,0,.45-.08,.77-.25,.95-.17,.18-.43,.27-.8,.27h-10.92c-.23-.57-.35-1.12-.35-1.65,0-.35,.1-.61,.29-.77s.48-.24,.86-.24h1.81c.06-1.66,.1-6,.1-13.02,0-3.8-.03-6.52-.1-8.18h-2.58c-.22-.57-.33-1.11-.33-1.63,0-.36,.09-.62,.28-.79,.19-.16,.47-.24,.85-.24h10.09c4.04,0,6.93,.56,8.66,1.69,1.73,1.13,2.59,2.93,2.59,5.4,0,3.42-2.12,5.79-6.36,7.11,1.06,.44,1.96,1.12,2.7,2.05,.74,.93,1.52,2.22,2.33,3.89s1.49,2.7,2.01,3.11c.52,.41,1.29,.61,2.28,.61,.35,1.15,.31,1.95-.12,2.39s-1.51,.66-3.25,.66c-2.02,0-3.42-.22-4.19-.65-.77-.43-1.47-1.76-2.09-3.97-.62-2.21-1.29-3.85-2.01-4.92-.72-1.07-1.71-1.6-2.96-1.6-.67,0-1.27,.06-1.79,.19,.01,3.86,.04,6.49,.1,7.89Zm-.1-11.25h1.57c1.67,0,2.95-.31,3.84-.94,.89-.63,1.33-1.63,1.33-3,0-1.78-.44-3.04-1.31-3.8-.87-.76-1.99-1.14-3.33-1.14-.82,0-1.48,.06-2,.19-.06,.82-.1,3.13-.1,6.94v1.75Z"/><path class="cls-5" d="M317.58,80.79c.08-1.66,.12-6,.12-13.02,0-3.8-.03-6.33-.1-7.6-4.51,.25-7.04,.37-7.6,.37-.63,0-1.09-.12-1.38-.35s-.43-.67-.43-1.32c0-.88,.22-1.85,.66-2.9,2.67,.64,6.03,.95,10.07,.95h13.08c.61,0,1.06,.1,1.35,.29,.29,.19,.44,.61,.44,1.24,0,1.17-.34,2.29-1.03,3.36-2.42-1.1-5.24-1.65-8.46-1.65h-.49c-.06,1.27-.1,3.81-.1,7.62,0,7.01,.03,11.35,.1,13h2.97c.23,.47,.35,.95,.35,1.44,0,.45-.08,.77-.25,.95-.17,.18-.44,.27-.82,.27h-11.47c-.23-.57-.35-1.12-.35-1.65,0-.35,.1-.61,.29-.77s.48-.24,.86-.24h2.18Z"/><path class="cls-5" d="M356.11,56.53c3.33,0,5.54,.19,6.62,.58s1.62,1.15,1.62,2.27-.4,2.04-1.19,2.9c-2.99-1.35-5.59-2.02-7.79-2.02-1.46,0-2.48,.25-3.05,.76s-.86,1.24-.86,2.2c0,1.14,.36,1.99,1.07,2.55,.71,.56,2.15,1.15,4.32,1.79,2.72,.71,4.82,1.61,6.29,2.7,1.47,1.09,2.24,2.86,2.3,5.33,0,2.8-1.01,4.88-3.02,6.23-2.02,1.35-4.95,2.03-8.82,2.03-2.8,0-4.86-.21-6.19-.62s-1.99-1.24-1.99-2.47c0-1.09,.45-2.05,1.36-2.9,2.97,1.5,5.75,2.25,8.34,2.25,1.7,0,2.88-.22,3.56-.67,.67-.45,1.01-1.19,1.01-2.23,0-1.22-.52-2.16-1.57-2.84s-2.78-1.35-5.19-2.04c-2.57-.69-4.41-1.64-5.53-2.86-1.12-1.22-1.68-2.78-1.68-4.68,0-2.6,.92-4.63,2.77-6.08,1.85-1.45,4.39-2.18,7.63-2.18Z"/><path class="cls-5" d="M376.85,80.79c.08-1.66,.12-6,.12-13.02,0-3.8-.03-6.33-.1-7.6-4.51,.25-7.04,.37-7.6,.37-.63,0-1.09-.12-1.38-.35s-.43-.67-.43-1.32c0-.88,.22-1.85,.66-2.9,2.67,.64,6.03,.95,10.07,.95h13.08c.61,0,1.06,.1,1.35,.29,.29,.19,.44,.61,.44,1.24,0,1.17-.34,2.29-1.03,3.36-2.42-1.1-5.24-1.65-8.46-1.65h-.49c-.06,1.27-.1,3.81-.1,7.62,0,7.01,.03,11.35,.1,13h2.97c.23,.47,.35,.95,.35,1.44,0,.45-.08,.77-.25,.95-.17,.18-.44,.27-.82,.27h-11.47c-.23-.57-.35-1.12-.35-1.65,0-.35,.1-.61,.29-.77s.48-.24,.86-.24h2.18Z"/><path class="cls-5" d="M412.31,59.58h-2.22c-.23-.57-.35-1.11-.35-1.63,0-.36,.1-.62,.29-.79,.19-.16,.48-.24,.86-.24h8.94c.22,.48,.33,.96,.33,1.44s-.08,.79-.25,.96c-.17,.18-.43,.26-.8,.26h-1.5c-.07,1.66-.09,5.53-.08,11.6,0,4.91-.97,8.25-2.91,10.01-1.94,1.76-4.81,2.64-8.62,2.64-3.45,0-5.83-.64-7.13-1.91-1.31-1.28-1.96-3.64-1.96-7.1,0-8.5-.03-13.58-.1-15.24h-1.83c-.22-.57-.33-1.11-.33-1.63,0-.36,.09-.62,.28-.79,.19-.16,.47-.24,.85-.24h9.29c.22,.48,.33,.96,.33,1.44s-.08,.79-.25,.96c-.17,.18-.43,.26-.8,.26h-1.32c-.06,1.71-.1,5.48-.1,11.29,0,3.78,.38,6.27,1.15,7.45,.76,1.19,1.97,1.78,3.62,1.78,1.74,0,2.96-.52,3.67-1.57,.71-1.05,1.06-3.14,1.06-6.28,0-6.74-.04-10.96-.12-12.67Z"/><path class="cls-5" d="M423.91,56.92h8.2c5.86,0,9.87,.93,12.05,2.79,2.18,1.86,3.27,4.95,3.27,9.26,0,4.78-1.12,8.39-3.37,10.83-2.25,2.44-6.06,3.65-11.44,3.65l-9.5,.02c-.23-.57-.35-1.12-.35-1.65,0-.35,.1-.61,.29-.77s.48-.24,.86-.24h1.42c.08-1.67,.12-6.02,.12-13.04,0-3.8-.04-6.52-.12-8.18h-2.22c-.23-.57-.35-1.11-.35-1.63,0-.36,.1-.62,.29-.79,.19-.16,.48-.24,.86-.24Zm10.07,3.73c-.93,0-1.74,.06-2.43,.19-.06,1.81-.1,6.02-.1,12.62,0,3.07,.19,4.88,.56,5.43s1.35,.83,2.94,.83c1.88,0,3.31-.62,4.3-1.85,.98-1.23,1.48-3.71,1.48-7.43s-.58-6.22-1.74-7.65c-1.16-1.43-2.83-2.15-5.01-2.15Z"/><path class="cls-5" d="M452.51,56.92h17.69c.83,0,1.42,.13,1.78,.38,.36,.25,.54,.77,.54,1.56,0,.96-.32,1.94-.95,2.95-2.72-1.1-6.21-1.65-10.46-1.65h-.93c-.08,1.27-.12,3.86-.12,7.76h9.8c.22,.69,.33,1.4,.33,2.14,0,.44-.08,.74-.23,.88-.16,.15-.45,.22-.89,.22h-9c.01,4.99,.05,8,.12,9.04h1.61c4.37,0,7.83-.51,10.38-1.54,.57,.85,.85,1.78,.85,2.78,0,.71-.27,1.22-.8,1.54s-1.61,.47-3.23,.47l-17.28,.02c-.23-.57-.35-1.12-.35-1.65,0-.35,.1-.61,.29-.77s.48-.24,.86-.24h1.42c.08-1.67,.12-6.02,.12-13.04,0-3.8-.04-6.52-.12-8.18h-2.22c-.23-.57-.35-1.11-.35-1.63,0-.36,.1-.62,.29-.79,.19-.16,.48-.24,.86-.24Z"/><path class="cls-5" d="M477.52,56.92h8.34c1.74,3.33,3.41,6.41,5.01,9.25,1.61,2.84,3.25,6.36,4.94,10.56v-8.96c0-3.8-.04-6.52-.12-8.18h-2.2c-.22-.57-.33-1.11-.33-1.63,0-.36,.1-.62,.29-.79,.19-.16,.48-.24,.86-.24h8.75c.22,.48,.33,.96,.33,1.44s-.08,.79-.25,.96c-.17,.18-.44,.26-.82,.26h-1.69c-.05,1.66-.08,4.39-.08,8.2v13.04c0,1.23-.14,2.01-.43,2.33s-1.04,.49-2.25,.49c-2.42,0-3.8-.09-4.12-.27-.32-.18-1.62-2.14-3.89-5.89-2.27-3.74-4.36-7.93-6.28-12.56,0,8.92,.03,14.2,.1,15.86h2.02c.22,.47,.33,.95,.33,1.44,0,.45-.08,.77-.25,.95-.17,.18-.43,.27-.8,.27h-8.65c-.23-.57-.35-1.12-.35-1.65,0-.35,.1-.61,.29-.77s.48-.24,.86-.24h1.61c.08-1.66,.12-6,.12-13.02-.01-3.8-.06-6.52-.14-8.18h-2c-.23-.57-.35-1.11-.35-1.63,0-.36,.1-.62,.29-.79,.19-.16,.48-.24,.86-.24Z"/><path class="cls-5" d="M514.57,80.79c.08-1.66,.12-6,.12-13.02,0-3.8-.03-6.33-.1-7.6-4.51,.25-7.04,.37-7.6,.37-.63,0-1.09-.12-1.38-.35s-.43-.67-.43-1.32c0-.88,.22-1.85,.66-2.9,2.67,.64,6.03,.95,10.07,.95h13.08c.61,0,1.06,.1,1.35,.29,.29,.19,.44,.61,.44,1.24,0,1.17-.34,2.29-1.03,3.36-2.42-1.1-5.24-1.65-8.46-1.65h-.49c-.06,1.27-.1,3.81-.1,7.62,0,7.01,.03,11.35,.1,13h2.97c.23,.47,.35,.95,.35,1.44,0,.45-.08,.77-.25,.95-.17,.18-.44,.27-.82,.27h-11.47c-.23-.57-.35-1.12-.35-1.65,0-.35,.1-.61,.29-.77s.48-.24,.86-.24h2.18Z"/><path class="cls-5" d="M551.16,80.21h.47c4.34,0,7.79-.51,10.34-1.54,.57,.85,.86,1.78,.86,2.78,0,.71-.27,1.22-.8,1.54s-1.61,.47-3.23,.47l-16.09,.02c-.23-.57-.35-1.12-.35-1.65,0-.35,.1-.61,.29-.77s.48-.24,.86-.24h1.42c.08-1.67,.12-6.02,.12-13.04,0-3.8-.04-6.52-.14-8.18h-2.2c-.23-.57-.35-1.11-.35-1.63,0-.36,.1-.62,.29-.79,.19-.16,.48-.24,.86-.24h10.24c.22,.48,.33,.96,.33,1.44s-.08,.79-.25,.96c-.17,.18-.43,.26-.8,.26h-1.89c-.06,1.66-.1,4.39-.1,8.2,0,7.01,.04,11.15,.12,12.42Z"/><path class="cls-5" d="M565.93,56.92h10.63c.22,.48,.33,.96,.33,1.44s-.08,.79-.25,.96c-.17,.18-.44,.26-.82,.26h-1.88c-.07,1.66-.09,4.39-.08,8.2,0,7.01,.03,11.35,.1,13h2.61c.22,.47,.33,.95,.33,1.44,0,.45-.08,.77-.25,.95-.17,.18-.44,.27-.82,.27h-10.69c-.23-.57-.35-1.12-.35-1.65,0-.35,.1-.61,.29-.77s.48-.24,.86-.24h1.81c.06-1.66,.1-6,.1-13.02-.01-3.8-.05-6.52-.12-8.18h-2.58c-.23-.57-.35-1.11-.35-1.63,0-.36,.1-.62,.29-.79,.19-.16,.48-.24,.86-.24Z"/><path class="cls-5" d="M591.18,56.53c3.33,0,5.54,.19,6.62,.58s1.62,1.15,1.62,2.27-.4,2.04-1.19,2.9c-2.99-1.35-5.59-2.02-7.79-2.02-1.46,0-2.48,.25-3.05,.76s-.86,1.24-.86,2.2c0,1.14,.36,1.99,1.07,2.55,.71,.56,2.15,1.15,4.32,1.79,2.72,.71,4.82,1.61,6.29,2.7,1.47,1.09,2.24,2.86,2.3,5.33,0,2.8-1.01,4.88-3.02,6.23-2.02,1.35-4.95,2.03-8.82,2.03-2.8,0-4.86-.21-6.19-.62s-1.99-1.24-1.99-2.47c0-1.09,.45-2.05,1.36-2.9,2.97,1.5,5.75,2.25,8.34,2.25,1.7,0,2.88-.22,3.56-.67,.67-.45,1.01-1.19,1.01-2.23,0-1.22-.52-2.16-1.57-2.84s-2.78-1.35-5.19-2.04c-2.57-.69-4.41-1.64-5.53-2.86-1.12-1.22-1.68-2.78-1.68-4.68,0-2.6,.92-4.63,2.77-6.08,1.85-1.45,4.39-2.18,7.63-2.18Z"/><path class="cls-5" d="M611.92,80.79c.08-1.66,.12-6,.12-13.02,0-3.8-.03-6.33-.1-7.6-4.51,.25-7.04,.37-7.6,.37-.63,0-1.09-.12-1.38-.35s-.43-.67-.43-1.32c0-.88,.22-1.85,.66-2.9,2.67,.64,6.03,.95,10.07,.95h13.08c.61,0,1.06,.1,1.35,.29,.29,.19,.44,.61,.44,1.24,0,1.17-.34,2.29-1.03,3.36-2.42-1.1-5.24-1.65-8.46-1.65h-.49c-.06,1.27-.1,3.81-.1,7.62,0,7.01,.03,11.35,.1,13h2.97c.23,.47,.35,.95,.35,1.44,0,.45-.08,.77-.25,.95-.17,.18-.44,.27-.82,.27h-11.47c-.23-.57-.35-1.12-.35-1.65,0-.35,.1-.61,.29-.77s.48-.24,.86-.24h2.18Z"/></g><rect class="cls-1" x="105.08" y="38.56" width="544.46" height="62.06"/><path class="cls-1" d="M116.36,69.59c0,11.69-2.72,21.16-11.28,21.16s-19.75-9.47-19.75-21.16,11.18-22.57,19.75-22.57,11.28,10.88,11.28,22.57Z"/><path class="cls-3" d="M103.14,53.81c.32,6.53-.63,13.19,1.26,19.57,.49,1.65,2.86,1.28,2.95-.4,.16-3.2,.91-6.36,.82-9.57-.08-2.99-1.34-6.06-.64-9.04l-2.95-.4c-.97,8.86,.46,17.85-.98,26.68h2.89c-.49-2.35-.49-4.73-.51-7.12s-.04-4.62-.04-6.93c0-4.79,.04-9.59,.14-14.38l-1.1,1.45c.32-.06,.65-.06,.97-.02l-1.5-1.5,.04,.73c.08,1.5,1.96,2.02,2.8,.76,.62-.94,.45-2.16-.33-2.96-.96-.98-2.31-.87-3.53-.55l1.46,2.51c.18-.21,.23-.33,.5-.27l.4-2.95c-.18,.1-.28,.05-.3-.17l-.9,2.2c.33-.11,.46-.16,.72,.08l.66-2.51c-.35,.14-.99,.46-1.36,.2l.69,.9c-.57,.68-.55,1.01,.07,1.01,.26,.04,.52,.07,.79,.08l-1.5-1.5,.22-.41c-.4,.06-.4,.31,0,.74,.29,.82,.31,.67,1.05,.86l.4-2.95c-1.29,0-3.2-.38-4.35,.36-1.09,.7-1.1,2.1-.28,2.98,1.31,1.42,3.43-.7,2.12-2.12l-.15-.17,.44,1.06c-.89,.71-.94,1-.17,.88h2.39c1.68,.02,2.05-2.5,.4-2.93-1.24-.32-2.66-.61-3.72,.33-.82,.73-1.16,2.07-.58,3.05,1.31,2.19,5.28,.71,5.23-1.69-.02-.86-.68-1.43-1.5-1.5-.93-.07-1.72-.4-2.62,.06-.8,.41-1.35,1.28-1.26,2.18,.22,2.17,3,2.04,4.48,1.47,.98-.38,1.57-1.68,.66-2.51-1.02-.93-2.31-1.29-3.64-.85-.97,.32-1.34,1.3-.9,2.2,.54,1.1,1.67,1.75,2.89,1.66,1.59-.12,2.15-2.56,.4-2.95-1.28-.28-2.54,.02-3.41,1.04-.94,1.1-.07,2.91,1.46,2.51,.53,0,.69-.29,.47-.9l2.8,.76-.04-.73c-.05-.85-.65-1.45-1.5-1.5-.61-.04-1.17,.02-1.77,.12-.65,.11-1.09,.84-1.1,1.45-.1,4.96-.15,9.92-.14,14.88s-.32,9.69,.66,14.35c.29,1.4,2.65,1.47,2.89,0,1.48-9.11,.08-18.33,1.08-27.47,.19-1.69-2.56-2.02-2.95-.4-.75,3.19,.33,6.18,.51,9.35,.19,3.37-.63,6.69-.8,10.05l2.95-.4c-1.81-6.1-.84-12.51-1.15-18.77-.09-1.92-3.09-1.93-3,0h0Z"/><path class="cls-3" d="M105.38,49.8v-.03l-.14,.36s.03-.05,.04-.07l-.23,.3s.05-.05,.08-.07l-.3,.23s.08-.05,.12-.07l-.36,.15c.1-.04,.2-.06,.3-.07l-.4,.05c.33-.04,.66-.08,.99-.04l-.4-.05c.13,.02,.26,.05,.39,.1l-.36-.15c.06,.03,.12,.06,.18,.09,.17,.11,.36,.17,.56,.18,.2,.04,.4,.04,.6-.03,.35-.1,.73-.36,.9-.69,.18-.35,.28-.77,.15-1.16s-.35-.69-.69-.9-.72-.32-1.12-.37c-.29-.04-.56-.05-.85-.03-.11,0-.22,.02-.32,.04-.21,.03-.43,.04-.64,.1-.36,.11-.58,.24-.86,.48-.08,.07-.12,.14-.19,.22-.18,.23-.19,.28-.32,.6-.06,.2-.07,.4-.03,.6,0,.2,.07,.39,.18,.56,.09,.17,.22,.32,.39,.42,.14,.13,.31,.22,.51,.27,.38,.09,.81,.07,1.16-.15l.3-.23c.19-.19,.31-.41,.39-.66h0Z"/><path class="cls-3" d="M105.96,44.77c-.24,1.12-.32,2.28-.18,3.42,0,.21,.04,.4,.13,.58,.06,.19,.16,.35,.31,.48,.26,.26,.69,.46,1.06,.44,.82-.04,1.49-.66,1.5-1.5l.03-2.21c0-.38-.17-.79-.44-1.06s-.69-.46-1.06-.44c-.82,.04-1.49,.66-1.5,1.5l-.03,2.21h3c-.1-.78-.09-1.57,0-2.35l-.05,.4c.03-.23,.07-.45,.12-.68,.08-.4,.06-.8-.15-1.16-.18-.31-.54-.61-.9-.69-.38-.09-.81-.07-1.16,.15-.32,.2-.61,.52-.69,.9h0Z"/><path class="cls-3" d="M105.83,45.72l-.12,1.08c-.04,.34,.19,.83,.44,1.06s.53,.37,.86,.41,.68,0,.96-.18c.34-.22,.55-.51,.69-.9,.24-.64,.22-1.32,.1-1.99l-.15-.36c-.09-.17-.22-.32-.39-.42-.25-.2-.58-.34-.91-.32-.69,.03-1.23,.45-1.45,1.1-.33,.98-.09,1.98,.05,2.97l-.05-.4c.07,.52,.09,1.04,.05,1.56l.05-.4s-.01,.09-.03,.13l.15-.36-.03,.06,.23-.3s-.05,.05-.08,.07l.3-.23-.05,.03,.36-.15c-.19,.07-.41,.09-.6,.13l.4-.05s-.1,0-.14,0l.4,.05h-.05l.36,.14s-.06-.03-.08-.05l.3,.23s-.05-.04-.07-.07l.23,.3s-.05-.09-.08-.13l.15,.36c-.04-.1-.07-.2-.09-.31l.05,.4s0-.08,0-.12l-.05,.4,.02-.06-.15,.36,.03-.04-.23,.3,.04-.03-.3,.23c.38-.27,.69-.52,.93-.93s.35-.85,.36-1.31l-2.95,.4s.03,.08,.03,.12l-.05-.4c0,.07,0,.12,0,.19l.05-.4c-.01,.06-.03,.12-.05,.18l.15-.36c-.03,.06-.06,.11-.1,.16l.23-.3s-.06,.06-.09,.09l.3-.23c-.05,.04-.1,.07-.16,.1l.36-.15c-.06,.02-.12,.04-.18,.05l.4-.05c-.07,0-.12,0-.19,0l.76,2.8c.52-.39,.93-.79,1.29-1.33,.28-.43,.49-.93,.59-1.42,.09-.39,.06-.8-.15-1.16-.18-.31-.54-.61-.9-.69-.76-.17-1.67,.23-1.85,1.05-.04,.19-.1,.37-.17,.55l.15-.36c-.11,.26-.25,.5-.42,.72l.23-.3c-.16,.2-.34,.38-.55,.55l.3-.23-.05,.04c-.27,.2-.48,.4-.61,.72-.13,.3-.18,.66-.08,.98,.08,.25,.21,.47,.39,.66,.28,.31,.67,.39,1.06,.44,.68,.08,1.39-.3,1.8-.82,.43-.55,.59-1.28,.38-1.96-.23-.72-.89-1.18-1.65-1.07s-1.29,.72-1.3,1.47c0,.04,0,.08,0,.12l.05-.4c-.01,.1-.04,.2-.08,.3l.15-.36c-.04,.09-.09,.18-.16,.26l.23-.3c-.05,.06-.11,.12-.17,.17l.3-.23c-.22,.16-.43,.3-.59,.51-.24,.31-.39,.67-.37,1.06s.14,.86,.35,1.22c.33,.57,.94,.91,1.59,.92,.25,0,.48-.07,.71-.12,.1-.02,.21-.03,.31-.06,1.95-.58,1.3-3.09,1.1-4.56l.05,.4c-.04-.3-.06-.6-.03-.9l-.05,.4c.02-.15,.05-.29,.1-.44h-2.89s.02,.1,.02,.15l-.05-.4c.02,.18,.02,.35,0,.53l.05-.4c-.02,.18-.07,.34-.13,.51l2.95,.4,.12-1.08c.04-.36-.2-.82-.44-1.06-.26-.26-.69-.46-1.06-.44s-.79,.14-1.06,.44l-.23,.3c-.14,.23-.2,.49-.2,.76h0Z"/><path class="cls-3" d="M107.08,48.63c1.79,1.21,3,2.99,3.55,5.06l2.89-.8c-1.07-2.68-2.47-5.11-4.25-7.38l-1.82,2.36c3.72,2.6,6.18,6.59,7.02,11.03l2.74-1.16c-1.12-2.62-2.39-5.17-3.82-7.64-.71-1.24-2.89-.76-2.8,.76,.18,2.86,1.2,5.45,2.28,8.07s2.25,5.4,3.39,8.1c.67,1.57,3.22,.45,2.74-1.16-1-3.37-1.59-6.8-1.76-10.31h-3l1.03,13.97,2.95-.4c-1.05-2.7-1.73-5.5-1.96-8.39-.15-1.9-3.1-1.95-3,0,.21,4.19,.9,8.33,2.09,12.35,.48,1.62,2.92,1.31,2.95-.4,.05-2.66,.03-5.36-.95-7.87-.56-1.42-3.16-1.43-2.95,.4l1.9,16.1,2.95-.4c-1.16-4.04-2.03-8.17-2.54-12.34-.23-1.87-2.94-1.98-3,0-.12,4.18,.95,8.23,2.07,12.23l2.51-1.46c-1.32-1.49-2.41-3.12-3.32-4.89s-3.36-.21-2.59,1.51l1.06,2.38c.33,.75,.87,1.58,1.06,2.38,.11,.47,.12,.25-.1,.68-.19,.35-.51,.67-.75,1l-1.81,2.39,2.74,1.16c.25-1.65,.71-3.24,1.44-4.74l-2.8-.76c-.15,3.12-1.38,6.07-3.48,8.38l2.51,1.46c.3-1.7,.94-3.16,1.96-4.54s-1.15-2.88-2.36-1.82c-2.15,1.9-3.69,4.27-4.64,6.97h2.89l-.44-2.34c-.35-1.9-3.25-1.09-2.89,.8l.44,2.34c.29,1.58,2.44,1.27,2.89,0,.79-2.21,2.12-4.09,3.87-5.64l-2.36-1.82c-1.16,1.56-1.93,3.34-2.27,5.26-.24,1.36,1.41,2.67,2.51,1.46,2.65-2.92,4.17-6.56,4.36-10.5,.07-1.45-2.15-2.1-2.8-.76-.85,1.74-1.45,3.54-1.74,5.46-.26,1.71,1.69,2.54,2.74,1.16,.8-1.06,1.61-2.12,2.41-3.19,.57-.77,1.02-1.53,.8-2.53-.2-.92-.75-1.83-1.13-2.68l-1.55-3.46-2.59,1.51c1.02,2,2.3,3.82,3.79,5.5,1.02,1.14,2.9-.07,2.51-1.46-1.05-3.75-2.07-7.5-1.96-11.43h-3c.54,4.45,1.41,8.83,2.64,13.14,.45,1.56,3.15,1.34,2.95-.4l-1.9-16.1-2.95,.4c.89,2.28,.89,4.65,.85,7.07l2.95-.4c-1.12-3.77-1.79-7.62-1.99-11.55h-3c.25,3.16,.92,6.23,2.07,9.19,.56,1.45,3.08,1.43,2.95-.4l-1.03-13.97c-.14-1.91-3.09-1.94-3,0,.18,3.77,.8,7.49,1.87,11.11l2.74-1.16c-1.05-2.45-2.08-4.91-3.09-7.38-.96-2.34-2.01-4.72-2.18-7.27l-2.8,.76c1.42,2.47,2.7,5.02,3.82,7.64,.71,1.66,3.03,.4,2.74-1.16-.98-5.23-4.05-9.79-8.4-12.82-1.52-1.06-2.78,1.13-1.82,2.36,1.44,1.83,2.62,3.89,3.48,6.06,.7,1.75,3.4,1.12,2.89-.8-.76-2.85-2.49-5.21-4.93-6.86-1.6-1.09-3.11,1.51-1.51,2.59h0Z"/><path class="cls-3" d="M106.23,87.76c-.39,1.34-.54,2.77-.42,4.16,.04,.4,.14,.76,.44,1.06,.26,.26,.69,.46,1.06,.44,.82-.04,1.49-.66,1.5-1.5s0-1.71-.03-2.56c-.02-.75-.55-1.37-1.3-1.47-.7-.09-1.49,.34-1.65,1.07-.24,1.12-.24,2.24,.03,3.36,.18,.76,1.09,1.29,1.85,1.05,.8-.26,1.24-1.03,1.05-1.85-.04-.18-.08-.36-.1-.55l.05,.4c-.07-.51-.07-1.02,0-1.53l-.05,.4c.02-.16,.05-.32,.08-.48l-2.95-.4c.03,.85,.04,1.71,.03,2.56h3c-.07-.75-.05-1.5,.05-2.25l-.05,.4c.07-.51,.18-1.02,.32-1.51,.22-.75-.26-1.67-1.05-1.85s-1.61,.24-1.85,1.05h0Z"/><path class="cls-3" d="M103.27,82.3l1.12,.41,.53,.19,.26,.1,.13,.05c.22,.08,.1,.01-.38-.21l-.39-.66,.02,.08v-.8c.1-.35,.29-.59,.59-.7l-.13,.05c-.13,.04-.26,.09-.38,.13-.26,.08-.52,.16-.78,.23-.52,.14-1.05,.26-1.58,.36-.62,.11-1.13,.83-1.1,1.45,.03,.7,.45,1.21,1.1,1.45l2.99,1.09,.8-2.89c-.93-.31-1.88-.48-2.85-.59-.62-.07-1.31,.51-1.45,1.1s.08,1.41,.69,1.69c.52,.24,1.03,.5,1.51,.81,.22,.14,.44,.28,.66,.44,.11,.08,.21,.15,.32,.23-.26-.19,.17,.14,.21,.18l.66-2.51c-.3,.11-.6,.21-.92,.27-.04,0-.47,.06-.14,.03-.18,.01-.36,.03-.55,.03-.75,.02-1.37,.56-1.47,1.3s.35,1.43,1.07,1.65c.17,.05,.34,.1,.51,.16,.08,.03,.17,.06,.25,.09,.14,.06,.17,.07,.07,.03-.1-.04-.08-.03,.07,.03,.08,.04,.16,.08,.24,.12,.16,.08,.31,.17,.47,.26l.76-2.8-2.22,.19c-.75,.06-1.37,.52-1.47,1.3-.1,.71,.34,1.47,1.07,1.65,.12,.03,.23,.06,.35,.09,.08,.02,.15,.05,.23,.08-.16-.07-.18-.08-.08-.03,.22,.14,.45,.25,.66,.41l.36-2.74-1.03,.15c-.62,.09-1.13,.85-1.1,1.45,.03,.72,.46,1.18,1.1,1.45,.48,.2,.98,.38,1.48,.52,.75,.22,1.67-.26,1.85-1.05s-.24-1.61-1.05-1.85c-.51-.14-1-.32-1.48-.52v2.89l1.03-.15c.57-.09,1-.73,1.07-1.25,.09-.64-.22-1.12-.72-1.49-.55-.41-1.2-.7-1.86-.86l-.4,2.95,2.22-.19c.64-.05,1.29-.43,1.45-1.1s-.1-1.35-.69-1.69c-.73-.42-1.51-.76-2.32-1l-.4,2.95c.82-.02,1.63-.15,2.4-.44,.5-.19,.9-.51,1.05-1.05,.13-.48,.02-1.13-.39-1.46-1.02-.84-2.11-1.57-3.31-2.12l-.76,2.8c.13,.01,.17,.02,.02,0,.09,.01,.18,.03,.28,.04,.21,.03,.41,.08,.62,.12,.39,.09,.77,.19,1.14,.32,.75,.24,1.67-.28,1.85-1.05,.19-.85-.26-1.56-1.05-1.85l-2.99-1.09v2.89c.67-.12,1.32-.28,1.97-.47,.79-.24,1.71-.45,2.17-1.19,.33-.52,.38-1.2,.06-1.75-.29-.49-.74-.7-1.24-.89-.66-.25-1.32-.48-1.98-.72-.74-.27-1.68,.3-1.85,1.05-.19,.85,.26,1.56,1.05,1.85h0Z"/><path class="cls-3" d="M103.44,89.51c1.01,.33,2.09,.49,3.15,.52,.38,0,.8-.17,1.06-.44s.46-.69,.44-1.06-.14-.79-.44-1.06-.65-.43-1.06-.44c-.36,0-.72-.04-1.08-.09l.4,.05c-.57-.08-1.12-.21-1.66-.38-.36-.12-.83-.04-1.16,.15s-.61,.54-.69,.9c-.09,.38-.07,.81,.15,1.16s.51,.57,.9,.69h0Z"/><path class="cls-3" d="M103.89,89.84l2.76,.33c.36,.04,.82-.2,1.06-.44,.26-.26,.46-.69,.44-1.06s-.14-.79-.44-1.06l-.3-.23c-.23-.14-.49-.2-.76-.2l-2.76-.33c-.36-.04-.82,.2-1.06,.44-.26,.26-.46,.69-.44,1.06s.14,.79,.44,1.06l.3,.23c.23,.14,.49,.2,.76,.2h0Z"/><path class="cls-3" d="M103.06,89.96c.41,.09,.81,.18,1.22,.27,.38,.08,.8,.11,1.16,.26l-.36-.15c.06,.03,.11,.06,.17,.1l-.3-.23c.18,.15,.33,.32,.47,.5l-.23-.3c.2,.26,.36,.55,.49,.85l-.15-.36c.12,.3,.21,.62,.26,.94l-.05-.4c.02,.18,.04,.37,.04,.55,0,.78,.69,1.54,1.5,1.5s1.5-.66,1.5-1.5c0-1.32-.5-2.55-1.34-3.55-.22-.26-.5-.51-.8-.68-.34-.19-.67-.25-1.04-.32-.58-.11-1.15-.24-1.72-.37-.39-.09-.81-.05-1.16,.15-.31,.18-.61,.54-.69,.9-.17,.76,.23,1.66,1.05,1.85h0Z"/><path class="cls-1" d="M637.62,69.67c0,11.69,2.72,21.16,11.28,21.16s19.75-9.47,19.75-21.16-11.18-22.57-19.75-22.57-11.28,10.88-11.28,22.57Z"/><path class="cls-3" d="M644.08,44.97c-3.16,4.61-5.65,9.64-7.44,14.94-.63,1.85,2.21,2.57,2.89,.8l4.95-12.92c.66-1.72-1.81-2.4-2.74-1.16-2.47,3.32-3.6,7.35-4.33,11.37-.83,4.56-1.44,9.17-2.15,13.75l2.95,.4,1.53-16.65c.09-.94-1.03-1.75-1.9-1.45-2.09,.73-1.96,2.98-2.08,4.84-.15,2.44-.23,4.89-.23,7.33,0,4.47,0,9.18,1.72,13.39,.61,1.51,2.88,1.4,2.95-.4,.22-5.51-.1-11-.9-16.46-.23-1.59-2.47-1.25-2.89,0-1.53,4.49-3.31,9.76-2.47,14.55,.74,4.25,4.03,7.24,6,10.89l2.59-1.51-6-11.06-2.36,1.82c4.1,3.44,5.75,8.64,7.26,13.59,.43,1.42,2.46,1.43,2.89,0,.62-2.04,.87-4.14,.75-6.27l-2.95,.4c.45,2.53,1,5.03,1.65,7.51,.35,1.35,2.64,1.51,2.89,0s.39-3.03,.36-4.57c-.04-1.93-3.04-1.93-3,0,.02,1.27-.04,2.52-.25,3.77h2.89c-.65-2.48-1.2-4.99-1.65-7.51-.3-1.66-3.04-1.28-2.95,.4,.11,1.88-.1,3.67-.65,5.47h2.89c-1.66-5.42-3.55-11.15-8.03-14.91-1.27-1.07-3.2,.25-2.36,1.82l6,11.06c.92,1.7,3.51,.19,2.59-1.51-1.75-3.25-4.85-6.01-5.61-9.73-.45-2.16-.04-4.41,.43-6.54,.52-2.33,1.18-4.61,1.95-6.87h-2.89c.76,5.18,1,10.43,.8,15.66l2.95-.4c-1.41-3.47-1.54-7.18-1.6-10.88-.03-1.96,0-3.91,.06-5.87,.03-.98,.08-1.95,.14-2.93,.03-.49,.06-.98,.1-1.46,.02-.24,.04-.49,.06-.73,.13-.32,.04-.32-.26,0l-1.9-1.45-1.53,16.65c-.15,1.67,2.69,2.07,2.95,.4,.68-4.44,1.3-8.91,2.08-13.34,.69-3.93,1.69-7.81,4.1-11.06l-2.74-1.16-4.95,12.92,2.89,.8c1.71-5.06,4.12-9.82,7.14-14.22,1.1-1.6-1.5-3.1-2.59-1.51h0Z"/><path class="cls-3" d="M646.46,52.24c.66,.53,1.34,.88,2.09,1.25,.98,.48,1.04,.55,.81,1.65-.52,2.53-1.1,5.05-1.65,7.57l2.89,.8c.65-3.55,.86-7.13,.55-10.73-.17-1.96-2.76-1.9-3,0-.95,7.51-.61,15.1,.95,22.5,.36,1.73,2.85,1.22,2.95-.4,.28-4.92,.44-9.84,.49-14.77,.02-1.58-1.98-1.91-2.8-.76-2.56,3.62-2.86,8.18-2.88,12.48-.03,4.89,.01,9.87,1.59,14.55,.56,1.67,2.76,1.25,2.95-.4,.51-4.39,.32-8.79-.49-13.14-.27-1.44-2.61-1.42-2.89,0-.73,3.64-1.79,7.36-2.16,11.06-.15,1.54,.2,3.13,1.42,4.16,1.12,.94,2.51,1.09,3.81,.45,1.73-.85,.21-3.44-1.51-2.59-.78,.39-.75-1.77-.71-2.06,.14-1.07,.42-2.14,.63-3.2l1.42-7.03h-2.89c.75,4.08,.85,8.22,.38,12.34l2.95-.4c-1.46-4.31-1.5-8.84-1.48-13.35,.01-3.93,.12-8.04,2.47-11.37l-2.8-.76c-.05,4.93-.21,9.85-.49,14.77l2.95-.4c-1.5-7.14-1.76-14.46-.84-21.7h-3c.29,3.32,.16,6.65-.44,9.93-.35,1.88,2.48,2.7,2.89,.8l1.03-4.73c.32-1.45,.89-3.04,.9-4.54,0-1.08-.5-2-1.34-2.66s-1.84-.84-2.62-1.47c-1.49-1.2-3.62,.91-2.12,2.12h0Z"/><path class="cls-3" d="M650.64,85.5l-.32-1.66c-.05-.2-.14-.37-.27-.51-.11-.16-.25-.29-.42-.39-.17-.11-.36-.17-.56-.18-.2-.04-.4-.04-.6,.03-.36,.12-.71,.34-.9,.69l-.15,.36c-.07,.27-.07,.53,0,.8l.32,1.66c.05,.2,.14,.37,.27,.51,.11,.16,.25,.29,.42,.39,.17,.11,.36,.17,.56,.18,.2,.04,.4,.04,.6-.03,.36-.12,.71-.34,.9-.69l.15-.36c.07-.27,.07-.53,0-.8h0Z"/><path class="cls-3" d="M649.12,57.76c.05,.28,0-.19,.01-.26,0-.07,0-.15,.02-.22-.02,.13-.02,.14,0,.03,.09-.31,.14-.64,.22-.95,.17-.69,.3-1.4,.24-2.11-.04-.41-.1-.82-.18-1.23-.03-.15-.06-.3-.08-.45,0-.05-.07-.48-.04-.2-.02-.15-.03-.3-.03-.45,0-.16,.04-.44-.02-.13,.05-.16,.03-.15-.04,.04l-.59,.44c-.24,.06-.47,.03-.7-.1-.31-.4-.41-.49-.29-.26,.31,.63,1.07,.8,1.69,.69-.31,.06,.09,0,.15,0,.39,0-.24-.07,.14,.03,.28,.07-.12-.12,.15,.05,.12,.07,.23,.14,.34,.23,.8,.61,1.96-.06,2.2-.9,.32-1.11-.28-2.22-1.26-2.76-.49-.27-1.03-.36-1.58-.36-.21,0-.42,.02-.63,.02-.1,0-.21,0-.31,0-.3-.03-.21,0,.26,.09l.69,.9-.03-.09v.8l.03-.07-.69,.9c-.11,.05-.23,.09-.36,.1l.33-.02,.66-.04,1.31-.09c.75-.05,1.37-.53,1.47-1.3,.09-.66-.34-1.54-1.07-1.65l-2.26-.31c-.77-.11-1.65,.19-1.85,1.05-.16,.71,.22,1.73,1.05,1.85l2.26,.31,.4-2.95-2.13,.14c-.45,.03-.89,.05-1.29,.29-.59,.36-.94,1.11-.75,1.79,.33,1.14,1.43,1.34,2.45,1.3,.16,0,.32,0,.47-.02,.17,.01,.21,.01,.11,0-.08-.02-.06-.02,.08,.02-.16-.08-.16-.08,0,0l-.1-.08c.12,.12,.12,.12-.01-.02-.1-.19-.14-.39-.11-.6l2.2-.9c-.89-.68-2.02-.81-3.09-.62l1.69,.69c-.59-1.2-2.28-1.41-3.23-.54s-.77,2.21-.59,3.3c.04,.23,.08,.45,.12,.68,.02,.1,.04,.2,.05,.3l.02,.15c-.02-.12-.02-.13,0-.02,0,.23,.01,.45,0,.68,0-.16,.01-.06,0,.05-.02,.12-.05,.25-.08,.37-.25,1.09-.49,2.08-.3,3.21,.13,.78,1.13,1.28,1.85,1.05,.84-.27,1.18-1.01,1.05-1.85h0Z"/><path class="cls-3" d="M643.69,45.21l-.06,2.67-.03,1.3c0,.21,0,.42-.01,.63,0,.08,0,.17-.02,.25,.1-.41-.17,.18,.03-.18h2.59c-.27-.6-.56-1.18-.87-1.76-.61-1.15-2.42-.86-2.74,.36s-.48,2.47-.45,3.72c.02,1.06,1.29,1.98,2.26,1.3,1.32-.93,2-2.48,2.45-3.98,.42-1.39,.67-2.83,.97-4.25h-2.89c.15,.66,.26,1.32,.36,1.98,.02,.11,.01,.09,0-.05,.01,.09,.02,.18,.03,.28,.02,.16,.04,.32,.05,.48,.03,.35,.06,.69,.08,1.04,.04,.78,.66,1.54,1.5,1.5,.78-.03,1.55-.66,1.5-1.5-.08-1.52-.29-3.04-.62-4.53s-2.59-1.44-2.89,0c-.27,1.29-.51,2.6-.87,3.88-.09,.31-.18,.61-.29,.91-.04,.12-.09,.24-.13,.36-.06,.16-.06,.16,0,0-.03,.08-.07,.15-.11,.23-.13,.26-.27,.52-.43,.77-.04,.06-.08,.13-.13,.19,.12-.15,.13-.16,.02-.03-.06,.06-.43,.36-.12,.14l2.26,1.3c0-.54,.03-1.07,.07-1.61,.01-.11,.01-.09,0,.05l.02-.14c.02-.14,.05-.28,.07-.41,.05-.28,.12-.55,.19-.82l-2.74,.36c.31,.58,.59,1.17,.87,1.76,.48,1.03,2.08,.92,2.59,0s.41-2.16,.44-3.23l.07-2.96c.02-.78-.7-1.54-1.5-1.5s-1.48,.66-1.5,1.5h0Z"/><path class="cls-3" d="M645.85,44.77c.05,.55,.1,1.09,.15,1.64,.03,.37,.06,.75,.17,1.1,.13,.4,.31,.71,.56,1.03,.39,.5,.82,.97,1.35,1.32,.44,.29,.97,.47,1.45,.68,.38,.17,.74,.27,1.16,.15,.35-.1,.73-.36,.9-.69,.18-.35,.28-.77,.15-1.16-.11-.35-.34-.74-.69-.9-.51-.23-1.09-.41-1.55-.74l.3,.23c-.32-.25-.59-.56-.84-.87l.23,.3c-.09-.12-.17-.24-.23-.37l.15,.36c-.07-.17-.11-.35-.14-.53l.05,.4c-.08-.65-.13-1.3-.19-1.95-.04-.41-.14-.76-.44-1.06-.26-.26-.69-.46-1.06-.44-.75,.03-1.58,.66-1.5,1.5h0Z"/><path class="cls-3" d="M650.7,86.39c-.07,.08-.15,.15-.23,.22-.28,.24,.23-.13-.02,.01-.15,.09-.33,.17-.47,.27,.22-.09,.26-.1,.11-.05l-.09,.03c-.1,.03-.2,.06-.3,.09-.04,.01-.09,.02-.13,.03-.16,.03-.12,.02,.13-.01-.07-.03-.24,.02-.31,.02-.57,.02-1.12,0-1.69,.09-.5,.08-.97,.29-1.37,.6-.49,.38-.84,.89-.98,1.49-.12,.5-.12,1.02-.12,1.52,0,.95,.05,1.95,.42,2.84,.15,.36,.32,.7,.69,.9s.76,.26,1.16,.15c.71-.2,1.18-.8,1.28-1.52,.05-.37,.04-.73,.04-1.1,0-.32,0-.65,.02-.97,0-.08,.01-.16,.02-.24,.02-.24,.02-.06-.01,.07,.04-.17,.06-.34,.1-.51,.02-.08,.04-.15,.07-.22,.02-.05,.12-.31,.02-.08s.02-.03,.04-.08c.04-.07,.08-.13,.12-.2,.08-.15-.23,.24-.04,.07-.07,.08-.16,.14-.26,.17-.13,.05-.13,.05-.02,.02-.12,.01-.34,.02-.09,.02,.08,0,.15,0,.23,.01,.82,.06,1.63,.02,2.43-.2l-1.69-2.2c-.16,.3,.58-.45,.34-.32-.12,.07,.38-.12,.13-.07,.04,0,.38-.02,.18-.03-.06,0-.13,0-.19,0-.32,0-.63-.04-.95-.01-.89,.08-1.74,.34-2.4,.98s-.88,1.44-.91,2.29c-.01,.29,.01,.58,.01,.87,0,.08,0,.15,0,.23,0,.14-.08,.27,.02-.09-.04,.14-.06,.29-.12,.43-.13,.34-.03,.85,.15,1.16s.54,.61,.9,.69c.86,.2,1.54-.26,1.85-1.05,.24-.62,.2-1.31,.19-1.96,0-.14,0-.27,0-.41,.01-.27-.06,.27-.01,.09,.02-.05,.03-.11,.04-.17,.03-.15-.18,.27-.03,.07,.13-.17-.06,.07-.09,.09,.04-.03,.11-.11,.15-.15,.1-.11-.31,.19-.07,.05,.05-.03,.1-.06,.15-.08,.22-.13-.25,.08-.08,.03,.06-.01,.12-.04,.17-.05,.05-.01,.1-.03,.15-.03l-.19,.02c.15,.01,.32-.02,.47-.02s.32,.01,.47,.02c.87,.05,1.82-.24,2.25-1.06,.28-.54,.26-1.17-.12-1.67s-.99-.7-1.58-.54c-.17,.05-.34,.08-.51,.12-.35,.07,.34-.02-.02,0-.09,0-.17,.01-.26,.02-.35,.01-.68-.04-1.03-.05-1.06-.02-1.95,.58-2.4,1.53-.37,.79-.53,1.59-.59,2.45-.02,.32-.02,.65-.02,.97,0,.18,0,.36,0,.53,0,.08,0,.16,0,.24v.06c0-.51,.3-.88,.89-1.11l1.85,1.05c-.08-.18-.14-.37-.19-.56-.02-.1-.05-.19-.06-.29-.02-.13,0-.38,0,0,0-.4-.05-.8-.05-1.2,0-.19,0-.39,0-.58,0-.07,.04-.21,.02-.27,.03,.08-.07,.35,0,.09,.01-.04,.02-.09,.04-.13-.09,.2-.11,.26-.06,.16,.08-.15-.24,.29-.03,.04,.09-.1-.31,.2-.04,.04s-.19,.05-.05,.02c.07-.01,.14-.04,.21-.06,.28-.08-.36,.01-.04,0,.22,0,.44-.01,.66-.01,.5,0,1.01-.03,1.5-.14,.89-.2,1.73-.7,2.37-1.35,.55-.56,.6-1.57,0-2.12s-1.53-.6-2.12,0h0Z"/><rect class="cls-4" x="737.14" y="40.92" width="46.55" height="18.34"/><rect class="cls-4" x="741.96" y="21.17" width="33.17" height="18.34"/><rect class="cls-4" x="742.02" y="60.67" width="33.17" height="18.34"/><rect class="cls-4" x="737.85" y="80.42" width="46.55" height="18.34"/><rect class="cls-4" x="742.01" y="100.16" width="33.17" height="18.34"/><rect class="cls-2" x="691.3" y="21.02" width="49.63" height="18.34"/><rect class="cls-2" x="702.58" y="40.77" width="33.41" height="18.34"/><rect class="cls-2" x="708.93" y="60.69" width="32.07" height="18.34"/><rect class="cls-2" x="699.76" y="80.44" width="37.01" height="18.34"/><rect class="cls-2" x="691.3" y="100.11" width="49.61" height="18.34"/></svg>