<?xml version="1.0" encoding="UTF-8"?><svg xmlns="http://www.w3.org/2000/svg" viewBox="0 0 1366 147"><defs><style>.cls-1{fill:none;stroke:#42210b;stroke-miterlimit:10;stroke-width:3px;}.cls-2{fill:#c34e2c;}.cls-3{fill:#743b3b;}.cls-4{fill:#d05d39;}.cls-5{fill:#cf5f38;}.cls-6{fill:#daca8d;}.cls-7{fill:#c9b57b;}.cls-8{fill:#d29345;}.cls-9{fill:#d8c88c;}.cls-10{fill:#e1d19a;}.cls-11{fill:#5c2227;}.cls-12{fill:#5d2325;}.cls-13{isolation:isolate;}.cls-14{mix-blend-mode:multiply;opacity:.6;}</style></defs><g class="cls-13"><g id="Layer_1"><rect class="cls-6" width="1366" height="147"/><g><path class="cls-12" d="M380.52,58h12.4c.27,.59,.41,1.18,.41,1.77s-.1,.97-.31,1.19c-.21,.22-.54,.32-1.01,.32h-1.85c-.08,2.05-.11,5.48-.1,10.29h11.92c-.02-4.81-.07-8.24-.17-10.29h-2.71c-.27-.7-.41-1.38-.41-2.02,0-.45,.12-.77,.35-.97,.23-.2,.58-.3,1.04-.3h12.4c.27,.59,.41,1.18,.41,1.77s-.1,.97-.31,1.19-.54,.32-.98,.32h-2.09c-.1,2.05-.14,5.42-.12,10.12,0,8.65,.05,14,.14,16.05h2.95c.27,.58,.41,1.17,.41,1.78,0,.56-.1,.95-.31,1.18-.21,.22-.54,.34-.98,.34h-12.5c-.27-.7-.41-1.38-.41-2.04,0-.43,.12-.75,.35-.95,.23-.2,.58-.3,1.04-.3h1.75c.08-1.69,.13-5.65,.14-11.87h-11.92c.02,6.22,.06,10.18,.12,11.87h2.73c.27,.58,.41,1.17,.41,1.78,0,.56-.1,.95-.31,1.18-.21,.22-.54,.34-1.01,.34h-12.47c-.29-.7-.43-1.38-.43-2.04,0-.43,.12-.75,.36-.95,.24-.2,.59-.3,1.06-.3h1.99c.08-2.05,.12-7.4,.12-16.07-.02-4.69-.06-8.05-.14-10.1h-2.95c-.29-.7-.43-1.38-.43-2.02,0-.45,.12-.77,.36-.97,.24-.2,.59-.3,1.06-.3Z"/><path class="cls-12" d="M417.8,75.9c0-6.24,1.45-10.86,4.35-13.87,2.9-3.01,6.86-4.51,11.89-4.51,4.73,0,8.33,1.1,10.78,3.3,2.45,2.2,3.68,6.21,3.68,12.03,0,6.24-1.45,10.86-4.35,13.87-2.9,3.01-6.94,4.51-12.1,4.51-4.61,0-8.13-1.1-10.58-3.3-2.45-2.2-3.67-6.21-3.67-12.03Zm8.25-2.33c0,5.13,.65,8.59,1.94,10.38s3.1,2.67,5.42,2.67,4.17-.87,5.23-2.6c1.05-1.73,1.58-4.68,1.58-8.84,0-5.28-.64-8.77-1.93-10.48-1.29-1.71-3.1-2.57-5.43-2.57s-4.17,.87-5.23,2.6c-1.06,1.74-1.58,4.68-1.58,8.84Z"/><path class="cls-12" d="M474.2,86.05c0-3.04-.03-4.93-.1-5.67-.06-.74-.16-1.28-.28-1.6s-.31-.55-.58-.68c-.26-.14-.6-.2-1-.2-.29-.54-.43-1.08-.43-1.61,0-.62,.14-1.06,.42-1.32,.28-.26,.76-.38,1.45-.38h5.23c1.07,0,1.79,.18,2.16,.53,.37,.35,.55,1.06,.55,2.14v5.01c0,2.11,.08,4.86,.24,8.25-.88,.16-1.94,.24-3.19,.24-.34,0-.95-.56-1.85-1.68-2.94,1.44-5.96,2.16-9.04,2.16-4.94,0-8.51-1.21-10.7-3.62-2.19-2.41-3.29-6.32-3.29-11.71,0-6.24,1.45-10.86,4.35-13.87,2.9-3.01,7.1-4.51,12.58-4.51,3.44,0,5.8,.24,7.1,.73,1.29,.49,1.94,1.37,1.94,2.65s-.5,2.47-1.49,3.72c-3.18-1.66-6.28-2.49-9.28-2.49-2.22,0-3.94,.79-5.15,2.37-1.21,1.58-1.81,4.57-1.81,8.97,0,5.15,.59,8.63,1.78,10.44,1.18,1.81,3.24,2.71,6.17,2.71,1.41,0,2.81-.19,4.2-.58Z"/><path class="cls-12" d="M521.91,58h9.64c.29,.59,.43,1.18,.43,1.77s-.1,.97-.31,1.19c-.21,.22-.54,.32-1.01,.32h-1.15c-.9,3.41-2.18,8.62-3.84,15.64-1.66,7.02-2.85,11.15-3.55,12.4-.7,1.25-2.25,1.87-4.65,1.87-2.83,0-4.39-.09-4.67-.26-.28-.18-1.06-4.14-2.33-11.89-1.27-7.75-1.95-11.62-2.03-11.62s-.72,3.34-1.93,10.02c-1.21,6.68-2.16,10.64-2.87,11.89-.7,1.25-2.25,1.87-4.65,1.87-2.54,0-3.95-.09-4.22-.26-.27-.18-1.33-4.3-3.18-12.37-1.85-8.07-3.32-13.83-4.43-17.28h-2.02c-.27-.7-.41-1.38-.41-2.02,0-.45,.12-.77,.36-.97,.24-.2,.59-.3,1.06-.3h11.92c.27,.59,.41,1.18,.41,1.77s-.1,.97-.31,1.19c-.21,.22-.54,.32-1.01,.32h-1.18c.18,2.05,.86,6.39,2.06,13.04,1.2,6.64,1.95,9.97,2.25,9.97s1.2-4.29,2.69-12.88,2.36-12.97,2.63-13.15c.26-.18,2.1-.26,5.51-.26,1.2,0,2.03,.24,2.48,.71s1.4,4.85,2.82,13.15c1.42,8.29,2.28,12.44,2.58,12.44s1-3.29,2.1-9.86c1.1-6.57,1.71-10.95,1.82-13.15h-2.01c-.29-.7-.43-1.38-.43-2.02,0-.45,.12-.77,.36-.97,.24-.2,.59-.3,1.06-.3Z"/><path class="cls-12" d="M546.83,57.55c2.67,0,4.18,.09,4.53,.26s1.93,4.38,4.73,12.61c2.8,8.23,4.82,13.91,6.07,17.04h2.25c.27,.58,.41,1.17,.41,1.78,0,.56-.1,.95-.31,1.18-.21,.22-.54,.34-1.01,.34h-12.26c-.27-.7-.41-1.38-.41-2.04,0-.43,.12-.75,.36-.95,.24-.2,.59-.3,1.05-.3h1.06c-.24-1.15-.86-3.45-1.85-6.88h-10.17c-.9,3.36-1.46,5.65-1.68,6.88h2.28c.27,.58,.41,1.17,.41,1.78,0,.56-.1,.95-.31,1.18-.21,.22-.54,.34-.98,.34h-10.46c-.27-.7-.41-1.38-.41-2.04,0-.43,.12-.75,.35-.95,.23-.2,.58-.3,1.04-.3h1.29c1.14-3.09,2.85-8.1,5.15-15.03,2.29-6.93,3.82-11.15,4.57-12.64,.75-1.5,2.18-2.24,4.29-2.24Zm-4.49,19.02h7.94c-2.45-8.06-3.82-12.09-4.11-12.09s-1.57,4.03-3.83,12.09Z"/><path class="cls-12" d="M578.62,87.46h3.48c.27,.58,.41,1.17,.41,1.78,0,.56-.1,.95-.31,1.18-.21,.22-.54,.34-.98,.34h-13.48c-.29-.7-.43-1.38-.43-2.04,0-.43,.12-.75,.36-.95,.24-.2,.59-.3,1.06-.3h2.23c.08-2.05,.12-7.4,.12-16.07,0-4.69-.04-8.05-.12-10.1h-3.19c-.27-.7-.41-1.38-.41-2.02,0-.45,.12-.77,.35-.97,.23-.2,.58-.3,1.04-.3h12.45c4.99,0,8.55,.7,10.69,2.09,2.14,1.39,3.2,3.61,3.2,6.67,0,4.22-2.62,7.15-7.84,8.78,1.31,.54,2.42,1.39,3.33,2.53,.91,1.14,1.87,2.74,2.88,4.8,1.01,2.06,1.84,3.33,2.48,3.84s1.59,.76,2.82,.76c.43,1.42,.38,2.41-.14,2.95-.53,.54-1.86,.82-4.01,.82-2.49,0-4.22-.27-5.17-.8-.95-.54-1.81-2.17-2.58-4.89s-1.59-4.75-2.48-6.07-2.11-1.98-3.66-1.98c-.83,0-1.57,.08-2.21,.24,.02,4.77,.06,8.01,.12,9.74Zm-.12-13.89h1.94c2.06,0,3.64-.39,4.74-1.16,1.1-.78,1.64-2.01,1.64-3.71,0-2.19-.54-3.75-1.62-4.69-1.08-.94-2.45-1.4-4.11-1.4-1.01,0-1.83,.08-2.47,.24-.08,1.01-.12,3.86-.12,8.56v2.16Z"/><path class="cls-12" d="M609.35,87.46c.1-2.05,.14-7.4,.14-16.07,0-4.69-.04-7.81-.12-9.38-5.57,.3-8.69,.46-9.38,.46-.78,0-1.35-.14-1.7-.43-.35-.29-.53-.83-.53-1.63,0-1.09,.27-2.28,.82-3.57,3.29,.78,7.44,1.18,12.43,1.18h16.14c.75,0,1.31,.12,1.67,.36,.36,.24,.54,.75,.54,1.54,0,1.44-.42,2.82-1.27,4.15-2.99-1.36-6.47-2.04-10.44-2.04h-.6c-.08,1.57-.12,4.7-.12,9.4,0,8.65,.04,14,.12,16.05h3.67c.29,.58,.43,1.17,.43,1.78,0,.56-.1,.95-.31,1.18-.21,.22-.54,.34-1.01,.34h-14.15c-.29-.7-.43-1.38-.43-2.04,0-.43,.12-.75,.36-.95,.24-.2,.59-.3,1.06-.3h2.69Z"/><path class="cls-12" d="M656.89,57.52c4.11,0,6.83,.24,8.17,.72,1.33,.48,2,1.42,2,2.81s-.49,2.52-1.46,3.57c-3.69-1.66-6.9-2.49-9.62-2.49-1.81,0-3.06,.31-3.77,.94-.7,.62-1.05,1.53-1.05,2.71,0,1.41,.44,2.46,1.32,3.14,.88,.69,2.65,1.42,5.33,2.21,3.36,.88,5.95,1.99,7.76,3.33,1.82,1.34,2.76,3.53,2.84,6.57,0,3.45-1.24,6.02-3.73,7.69-2.49,1.67-6.11,2.51-10.88,2.51-3.46,0-6-.26-7.64-.77-1.64-.51-2.46-1.53-2.46-3.05,0-1.34,.56-2.53,1.68-3.57,3.66,1.86,7.09,2.78,10.29,2.78,2.09,0,3.56-.28,4.39-.83,.83-.55,1.25-1.47,1.25-2.75,0-1.5-.65-2.67-1.94-3.5-1.3-.83-3.43-1.67-6.41-2.52-3.17-.85-5.44-2.02-6.83-3.53-1.38-1.5-2.07-3.43-2.07-5.78,0-3.21,1.14-5.72,3.42-7.51,2.28-1.79,5.42-2.69,9.42-2.69Z"/><path class="cls-12" d="M682.49,87.46c.1-2.05,.14-7.4,.14-16.07,0-4.69-.04-7.81-.12-9.38-5.57,.3-8.69,.46-9.38,.46-.78,0-1.35-.14-1.7-.43-.35-.29-.53-.83-.53-1.63,0-1.09,.27-2.28,.82-3.57,3.29,.78,7.44,1.18,12.43,1.18h16.14c.75,0,1.31,.12,1.67,.36,.36,.24,.54,.75,.54,1.54,0,1.44-.42,2.82-1.27,4.15-2.99-1.36-6.47-2.04-10.44-2.04h-.6c-.08,1.57-.12,4.7-.12,9.4,0,8.65,.04,14,.12,16.05h3.67c.29,.58,.43,1.17,.43,1.78,0,.56-.1,.95-.31,1.18-.21,.22-.54,.34-1.01,.34h-14.15c-.29-.7-.43-1.38-.43-2.04,0-.43,.12-.75,.36-.95,.24-.2,.59-.3,1.06-.3h2.69Z"/><path class="cls-12" d="M726.24,61.29h-2.73c-.29-.7-.43-1.38-.43-2.02,0-.45,.12-.77,.36-.97,.24-.2,.59-.3,1.06-.3h11.03c.27,.59,.41,1.18,.41,1.77s-.1,.97-.31,1.19c-.21,.22-.54,.32-.98,.32h-1.85c-.08,2.05-.11,6.82-.1,14.32,0,6.06-1.2,10.18-3.59,12.35-2.39,2.18-5.94,3.26-10.64,3.26-4.25,0-7.19-.79-8.8-2.36-1.62-1.57-2.42-4.5-2.42-8.77,0-10.49-.04-16.76-.12-18.81h-2.25c-.27-.7-.41-1.38-.41-2.02,0-.45,.12-.77,.35-.97,.23-.2,.58-.3,1.04-.3h11.47c.27,.59,.41,1.18,.41,1.77s-.1,.97-.31,1.19-.54,.32-.98,.32h-1.63c-.08,2.11-.12,6.76-.12,13.94,0,4.67,.47,7.74,1.42,9.2,.94,1.46,2.43,2.19,4.46,2.19,2.14,0,3.65-.65,4.52-1.94,.87-1.29,1.31-3.88,1.31-7.75,0-8.32-.05-13.53-.14-15.64Z"/><path class="cls-12" d="M740.56,58h10.12c7.23,0,12.19,1.15,14.87,3.44,2.69,2.3,4.03,6.11,4.03,11.43,0,5.9-1.39,10.36-4.16,13.36-2.78,3.01-7.48,4.51-14.12,4.51l-11.73,.02c-.29-.7-.43-1.38-.43-2.04,0-.43,.12-.75,.36-.95,.24-.2,.59-.3,1.06-.3h1.75c.1-2.06,.14-7.43,.14-16.1,0-4.69-.05-8.05-.14-10.1h-2.73c-.29-.7-.43-1.38-.43-2.02,0-.45,.12-.77,.36-.97,.24-.2,.59-.3,1.06-.3Zm12.43,4.61c-1.15,0-2.15,.08-3,.24-.08,2.24-.12,7.43-.12,15.57,0,3.79,.23,6.03,.7,6.7,.46,.68,1.67,1.02,3.62,1.02,2.32,0,4.09-.76,5.3-2.28,1.21-1.52,1.82-4.57,1.82-9.16s-.72-7.67-2.15-9.44-3.49-2.65-6.18-2.65Z"/><path class="cls-12" d="M775.85,58h21.83c1.02,0,1.75,.16,2.2,.47,.44,.31,.66,.96,.66,1.93,0,1.18-.39,2.4-1.17,3.65-3.36-1.36-7.66-2.04-12.91-2.04h-1.15c-.1,1.57-.14,4.76-.14,9.57h12.09c.27,.85,.41,1.73,.41,2.64,0,.54-.1,.91-.29,1.09-.19,.18-.56,.28-1.1,.28h-11.11c.02,6.16,.06,9.88,.14,11.15h1.99c5.39,0,9.66-.63,12.81-1.9,.7,1.06,1.06,2.2,1.06,3.43,0,.88-.33,1.51-.98,1.9-.66,.38-1.98,.58-3.98,.58l-21.33,.02c-.29-.7-.43-1.38-.43-2.04,0-.43,.12-.75,.36-.95,.24-.2,.59-.3,1.06-.3h1.75c.1-2.06,.14-7.43,.14-16.1,0-4.69-.05-8.05-.14-10.1h-2.73c-.29-.7-.43-1.38-.43-2.02,0-.45,.12-.77,.36-.97,.24-.2,.59-.3,1.06-.3Z"/><path class="cls-12" d="M806.72,58h10.29c2.14,4.11,4.21,7.92,6.19,11.42,1.98,3.5,4.01,7.84,6.09,13.03v-11.06c0-4.69-.05-8.05-.14-10.1h-2.71c-.27-.7-.41-1.38-.41-2.02,0-.45,.12-.77,.36-.97,.24-.2,.59-.3,1.05-.3h10.79c.27,.59,.41,1.18,.41,1.77s-.1,.97-.31,1.19c-.21,.22-.54,.32-1.01,.32h-2.09c-.06,2.05-.1,5.42-.1,10.12v16.1c0,1.52-.18,2.48-.53,2.88s-1.28,.6-2.78,.6c-2.99,0-4.69-.11-5.09-.34-.4-.22-2-2.65-4.8-7.27s-5.38-9.79-7.75-15.5c0,11,.04,17.53,.12,19.57h2.49c.27,.58,.41,1.17,.41,1.78,0,.56-.1,.95-.31,1.18-.21,.22-.54,.34-.98,.34h-10.67c-.29-.7-.43-1.38-.43-2.04,0-.43,.12-.75,.36-.95,.24-.2,.59-.3,1.06-.3h1.99c.1-2.05,.14-7.4,.14-16.07-.02-4.69-.07-8.05-.17-10.1h-2.47c-.29-.7-.43-1.38-.43-2.02,0-.45,.12-.77,.36-.97,.24-.2,.59-.3,1.06-.3Z"/><path class="cls-12" d="M852.45,87.46c.1-2.05,.14-7.4,.14-16.07,0-4.69-.04-7.81-.12-9.38-5.57,.3-8.69,.46-9.38,.46-.78,0-1.35-.14-1.7-.43-.35-.29-.53-.83-.53-1.63,0-1.09,.27-2.28,.82-3.57,3.29,.78,7.44,1.18,12.43,1.18h16.14c.75,0,1.31,.12,1.67,.36,.36,.24,.54,.75,.54,1.54,0,1.44-.42,2.82-1.27,4.15-2.99-1.36-6.47-2.04-10.44-2.04h-.6c-.08,1.57-.12,4.7-.12,9.4,0,8.65,.04,14,.12,16.05h3.67c.29,.58,.43,1.17,.43,1.78,0,.56-.1,.95-.31,1.18-.21,.22-.54,.34-1.01,.34h-14.15c-.29-.7-.43-1.38-.43-2.04,0-.43,.12-.75,.36-.95,.24-.2,.59-.3,1.06-.3h2.69Z"/><path class="cls-12" d="M897.59,86.74h.58c5.36,0,9.61-.63,12.76-1.9,.7,1.06,1.06,2.2,1.06,3.43,0,.88-.33,1.51-.98,1.9-.66,.38-1.98,.58-3.98,.58l-19.86,.02c-.29-.7-.43-1.38-.43-2.04,0-.43,.12-.75,.36-.95,.24-.2,.59-.3,1.06-.3h1.75c.1-2.06,.14-7.43,.14-16.1,0-4.69-.06-8.05-.17-10.1h-2.71c-.29-.7-.43-1.38-.43-2.02,0-.45,.12-.77,.36-.97,.24-.2,.59-.3,1.06-.3h12.64c.27,.59,.41,1.18,.41,1.77s-.1,.97-.31,1.19-.54,.32-.98,.32h-2.33c-.08,2.05-.12,5.42-.12,10.12,0,8.65,.05,13.76,.14,15.33Z"/><path class="cls-12" d="M915.83,58h13.12c.27,.59,.41,1.18,.41,1.77s-.1,.97-.31,1.19c-.21,.22-.54,.32-1.01,.32h-2.33c-.08,2.05-.11,5.42-.1,10.12,0,8.65,.04,14,.12,16.05h3.21c.27,.58,.41,1.17,.41,1.78,0,.56-.1,.95-.31,1.18-.21,.22-.54,.34-1.01,.34h-13.19c-.29-.7-.43-1.38-.43-2.04,0-.43,.12-.75,.36-.95,.24-.2,.59-.3,1.06-.3h2.23c.08-2.05,.12-7.4,.12-16.07-.02-4.69-.06-8.05-.14-10.1h-3.19c-.29-.7-.43-1.38-.43-2.02,0-.45,.12-.77,.36-.97,.24-.2,.59-.3,1.06-.3Z"/><path class="cls-12" d="M946.99,57.52c4.11,0,6.83,.24,8.17,.72,1.33,.48,2,1.42,2,2.81s-.49,2.52-1.46,3.57c-3.69-1.66-6.9-2.49-9.62-2.49-1.81,0-3.06,.31-3.77,.94-.7,.62-1.05,1.53-1.05,2.71,0,1.41,.44,2.46,1.32,3.14,.88,.69,2.65,1.42,5.33,2.21,3.36,.88,5.95,1.99,7.76,3.33,1.82,1.34,2.76,3.53,2.84,6.57,0,3.45-1.24,6.02-3.73,7.69-2.49,1.67-6.11,2.51-10.88,2.51-3.46,0-6-.26-7.64-.77-1.64-.51-2.46-1.53-2.46-3.05,0-1.34,.56-2.53,1.68-3.57,3.66,1.86,7.09,2.78,10.29,2.78,2.09,0,3.56-.28,4.39-.83,.83-.55,1.25-1.47,1.25-2.75,0-1.5-.65-2.67-1.94-3.5-1.3-.83-3.43-1.67-6.41-2.52-3.17-.85-5.44-2.02-6.83-3.53-1.38-1.5-2.07-3.43-2.07-5.78,0-3.21,1.14-5.72,3.42-7.51,2.28-1.79,5.42-2.69,9.42-2.69Z"/><path class="cls-12" d="M972.58,87.46c.1-2.05,.14-7.4,.14-16.07,0-4.69-.04-7.81-.12-9.38-5.57,.3-8.69,.46-9.38,.46-.78,0-1.35-.14-1.7-.43-.35-.29-.53-.83-.53-1.63,0-1.09,.27-2.28,.82-3.57,3.29,.78,7.44,1.18,12.43,1.18h16.14c.75,0,1.31,.12,1.67,.36,.36,.24,.54,.75,.54,1.54,0,1.44-.42,2.82-1.27,4.15-2.99-1.36-6.47-2.04-10.44-2.04h-.6c-.08,1.57-.12,4.7-.12,9.4,0,8.65,.04,14,.12,16.05h3.67c.29,.58,.43,1.17,.43,1.78,0,.56-.1,.95-.31,1.18-.21,.22-.54,.34-1.01,.34h-14.15c-.29-.7-.43-1.38-.43-2.04,0-.43,.12-.75,.36-.95,.24-.2,.59-.3,1.06-.3h2.69Z"/></g><rect class="cls-1" x="347.1" y="35.34" width="671.91" height="76.59"/><path class="cls-1" d="M361.02,73.64c0,14.42-3.35,26.11-13.93,26.11s-24.37-11.69-24.37-26.11,13.79-27.85,24.37-27.85,13.93,13.43,13.93,27.85Z"/><path class="cls-6" d="M345.05,54.16c.4,8.03-.8,16.22,1.54,24.05,.49,1.65,2.86,1.29,2.95-.4,.19-3.94,1.11-7.83,1.01-11.79-.1-3.73-1.67-7.55-.77-11.27l-2.95-.4c-1.22,10.97,.57,22.09-1.22,33.01h2.89c-.61-2.88-.61-5.82-.64-8.75s-.05-5.8-.05-8.7c0-5.91,.05-11.82,.17-17.74l-1.1,1.45c.45-.08,.84-.07,1.29-.03l-1.5-1.5,.05,.9c.09,1.56,1.92,1.94,2.8,.76,.73-.99,.47-2.38-.35-3.24-1.06-1.13-2.67-.95-4.02-.58l1.46,2.51c.28-.34,.49-.53,.95-.43l.4-2.95c-.44,.05-.49,.02-.67-.38l-.9,2.2c.48-.17,.85-.18,1.23,.19l.66-2.51c-.31,.12-.61,.24-.94,.3-.1,.02-.86,0-.88,.04l.42,1.44,.38,.09c.34,.13,.81,.13,1.16,.15l-1.5-1.5c-.02-.26,.21-.23-.22-.08s-.96-.03,.09,.76c.06,.05-.04,.08,.14,.17,.33,.15,.94,.2,1.29,.29l.4-2.95c-1.48,0-3.56-.4-4.93,.25-1.25,.59-1.63,2.33-.54,3.27,1.45,1.26,3.58-.85,2.12-2.12l-.2,1.58h.44c.3,.11,.8,0,1.11,0h1.99c1.68,.02,2.05-2.51,.4-2.94-1.46-.38-3.2-.76-4.39,.45-.83,.84-1.12,2.26-.47,3.28,1.44,2.26,5.93,.63,5.76-1.98-.05-.85-.65-1.45-1.5-1.5-1.05-.06-1.96-.5-2.99,0-.9,.44-1.58,1.39-1.44,2.42,.31,2.37,3.48,2.1,5.09,1.46,1-.4,1.55-1.66,.66-2.51-1.12-1.07-2.66-1.49-4.15-.96-.98,.35-1.31,1.28-.9,2.2,.56,1.24,1.9,2.02,3.26,1.87,1.56-.17,2.18-2.53,.4-2.95-1.44-.33-2.91,.04-3.87,1.2-.91,1.1-.08,2.93,1.46,2.51,.29-.09,.58-.16,.89-.2,.2-.04,.23-.17,.09-.39l2.8,.76-.05-.9c-.05-.86-.65-1.43-1.5-1.5-.72-.06-1.39,.01-2.09,.14-.65,.12-1.09,.83-1.1,1.45-.13,6.08-.19,12.15-.17,18.23s-.42,12,.8,17.76c.29,1.4,2.65,1.47,2.89,0,1.84-11.21,.08-22.57,1.32-33.81,.19-1.69-2.55-2.02-2.95-.4-.95,3.93,.46,7.66,.65,11.58,.2,4.11-.79,8.17-.99,12.27l2.95-.4c-2.26-7.55-1.05-15.51-1.43-23.26-.1-1.92-3.1-1.93-3,0h0Z"/><path class="cls-6" d="M347.13,49.12v-.03l-.14,.36s.03-.06,.05-.08l-.23,.3s.06-.06,.09-.09l-.3,.23s.09-.06,.15-.08l-.36,.15c.12-.05,.25-.07,.38-.09l-.4,.05c.4-.05,.81-.1,1.22-.05l-.4-.05c.16,.02,.32,.06,.48,.13l-.36-.15c.08,.03,.15,.07,.22,.12,.33,.2,.79,.25,1.16,.15,.35-.1,.73-.36,.9-.69,.18-.35,.28-.77,.15-1.16s-.35-.69-.69-.9c-.67-.41-1.49-.52-2.26-.45-.13,.01-.27,.03-.4,.05-.23,.03-.47,.05-.69,.11-.37,.11-.62,.26-.91,.5s-.41,.54-.54,.87c-.06,.2-.07,.4-.03,.6,0,.2,.07,.39,.18,.56,.18,.31,.54,.61,.9,.69,.38,.09,.81,.07,1.16-.15l.3-.23c.19-.19,.31-.41,.39-.66h0Z"/><path class="cls-6" d="M348.53,43.11c-.29,1.36-.38,2.75-.21,4.13,.05,.41,.13,.75,.44,1.06,.26,.26,.69,.46,1.06,.44,.82-.04,1.49-.66,1.5-1.5l.03-2.72c0-.78-.7-1.54-1.5-1.5s-1.49,.66-1.5,1.5l-.03,2.72h3c-.12-.96-.12-1.93,0-2.9l-.05,.4c.04-.28,.09-.56,.15-.84,.08-.4,.06-.8-.15-1.16-.18-.31-.54-.61-.9-.69-.38-.09-.81-.07-1.16,.15-.32,.2-.61,.52-.69,.9h0Z"/><path class="cls-6" d="M348.37,44.18l-.15,1.33c-.04,.34,.19,.83,.44,1.06s.53,.37,.86,.41c.77,.1,1.39-.36,1.65-1.07s.26-1.51,.13-2.27c-.11-.62-.83-1.13-1.45-1.1-.69,.03-1.23,.45-1.45,1.1-.38,1.15-.1,2.32,.06,3.48l-.05-.4c.08,.64,.11,1.29,.07,1.93l.05-.4c-.04,.17,0,.12,.13-.14,.12-.27,.33-.44,.63-.52-.07,.01-.13,.03-.2,.04-.16,.03-.32,.06-.47,.1l.4-.05c-.06,.01-.12,.01-.18,0l.4,.05c.22,.06,.4,.2,.54,.37,.08,.12,.1,.14,.06,.08-.06-.1-.03-.03,.08,.21-.02-.11-.06-.21-.09-.32l.05,.4s-.01-.1,0-.15l-.05,.4c-.17,.51-.81,.9-.42,.62,.13-.09,.29-.21,.42-.33,.17-.16,.32-.37,.44-.57,.26-.43,.38-.94,.39-1.44l-2.95,.4s.03,.1,.04,.15l-.05-.4c0,.08,.01,.15,0,.23l.05-.4c-.01,.07-.09,.28,.01,.04,.06-.12,.06-.14,.03-.07-.06,.1-.02,.05,.12-.15,.03-.03,.29-.19,.12-.1,.33-.18,.22-.08,.06-.06l.4-.05c-.08,0-.15,0-.23,0l.76,2.8c.58-.44,1.06-.9,1.46-1.52,.33-.5,.57-1.09,.7-1.67,.17-.76-.23-1.66-1.05-1.85-.76-.17-1.67,.23-1.85,1.05-.04,.21-.14,.41-.18,.61,.1-.24,.12-.28,.06-.14-.02,.05-.05,.1-.07,.14-.05,.09-.1,.19-.16,.28s-.13,.17-.18,.26c.16-.2,.18-.24,.09-.12-.03,.04-.07,.08-.11,.12-.07,.08-.15,.15-.22,.23s-.39,.31,0,.02c-.27,.2-.48,.4-.61,.72-.13,.3-.18,.66-.08,.98,.08,.25,.21,.47,.39,.66,.28,.31,.67,.39,1.06,.44,1.58,.18,2.81-1.54,2.35-2.99-.23-.72-.89-1.18-1.65-1.07s-1.29,.72-1.3,1.47c0,.05,0,.1,0,.15l.05-.4c-.01,.08-.03,.15-.04,.22-.04,.26,.18-.33,.02-.05-.16,.27,.16-.15,.05-.06-.24,.2,.16-.13,.08-.05-.13,.12-.3,.2-.42,.33-.19,.21-.34,.44-.42,.71-.11,.37-.09,.71,0,1.09,.1,.46,.32,.89,.66,1.22s.77,.49,1.22,.52c.3,.02,.59-.07,.88-.12,.6-.12,1.15-.35,1.49-.9,.3-.5,.31-1.1,.3-1.67,0-.91-.18-1.79-.3-2.69l.05,.4c-.05-.37-.07-.74-.03-1.12l-.05,.4c.03-.18,.07-.36,.12-.54h-2.89c.01,.06,.02,.12,.03,.18l-.05-.4c.02,.22,.02,.43,0,.65l.05-.4c-.03,.22-.08,.43-.16,.63l2.95,.4,.15-1.33c.04-.36-.2-.82-.44-1.06-.26-.26-.69-.46-1.06-.44s-.79,.14-1.06,.44c-.29,.31-.39,.64-.44,1.06h0Z"/><path class="cls-6" d="M349.75,47.47c2.28,1.53,3.85,3.81,4.54,6.46l2.89-.8c-1.29-3.25-3-6.21-5.16-8.95l-1.82,2.36c4.66,3.24,7.79,8.25,8.82,13.82l2.74-1.16c-1.38-3.24-2.95-6.38-4.71-9.43-.72-1.24-2.89-.76-2.8,.76,.21,3.44,1.45,6.57,2.75,9.72,1.38,3.36,2.79,6.71,4.21,10.05,.67,1.57,3.22,.45,2.74-1.16-1.24-4.18-1.98-8.46-2.19-12.82h-3l1.27,17.24,2.95-.4c-1.31-3.36-2.15-6.85-2.43-10.45-.15-1.9-3.09-1.95-3,0,.25,5.13,1.1,10.22,2.57,15.14,.48,1.62,2.92,1.31,2.95-.4,.06-3.24,.05-6.56-1.16-9.62-.56-1.42-3.16-1.43-2.95,.4l2.35,19.87,2.95-.4c-1.44-5.02-2.51-10.14-3.14-15.33-.23-1.87-2.94-1.98-3,0-.16,5.13,1.17,10.1,2.54,14.99l2.51-1.46c-1.65-1.86-3.02-3.9-4.15-6.11-.89-1.75-3.36-.21-2.59,1.51l1.34,2.99,.76,1.71c.2,.44,.59,1.02,.67,1.5,.13,.8-.84,1.63-1.34,2.29l-2.09,2.76,2.74,1.16c.31-2.07,.89-4.05,1.81-5.94l-2.8-.76c-.18,3.94-1.74,7.68-4.4,10.59l2.51,1.46c.37-2.12,1.17-3.97,2.46-5.69,1.07-1.43-1.15-2.88-2.36-1.82-2.6,2.29-4.49,5.18-5.64,8.44h2.89l-.54-2.89c-.35-1.9-3.25-1.09-2.89,.8l.54,2.89c.29,1.57,2.45,1.27,2.89,0,.98-2.78,2.66-5.18,4.87-7.12l-2.36-1.82c-1.42,1.89-2.36,4.08-2.76,6.41-.23,1.36,1.41,2.66,2.51,1.46,3.21-3.51,5.06-7.96,5.28-12.71,.07-1.45-2.14-2.1-2.8-.76-1.03,2.12-1.76,4.32-2.11,6.65-.26,1.71,1.69,2.54,2.74,1.16l2.51-3.32c.75-1,1.63-1.92,1.45-3.26-.17-1.24-.97-2.5-1.48-3.64l-1.81-4.06-2.59,1.51c1.24,2.44,2.8,4.67,4.62,6.72,1.02,1.14,2.9-.07,2.51-1.46-1.3-4.65-2.58-9.33-2.43-14.2h-3c.66,5.46,1.73,10.84,3.25,16.12,.45,1.56,3.15,1.34,2.95-.4l-2.35-19.87-2.95,.4c1.12,2.83,1.11,5.82,1.06,8.82l2.95-.4c-1.4-4.68-2.23-9.47-2.46-14.35h-3c.3,3.87,1.13,7.63,2.54,11.25,.56,1.45,3.08,1.43,2.95-.4l-1.27-17.24c-.14-1.91-3.09-1.94-3,0,.22,4.62,.98,9.18,2.29,13.62l2.74-1.16c-1.32-3.1-2.63-6.21-3.91-9.33-1.18-2.87-2.45-5.79-2.64-8.92l-2.8,.76c1.76,3.05,3.33,6.19,4.71,9.43,.71,1.66,3.03,.4,2.74-1.16-1.18-6.35-4.92-11.94-10.2-15.61-1.52-1.05-2.78,1.13-1.82,2.36,1.82,2.31,3.31,4.9,4.39,7.63,.69,1.75,3.4,1.12,2.89-.8-.9-3.42-3-6.28-5.92-8.25-1.61-1.08-3.11,1.52-1.51,2.59h0Z"/><path class="cls-6" d="M348.86,96.16c-.47,1.63-.65,3.36-.5,5.04,.04,.4,.14,.76,.44,1.06,.26,.26,.69,.46,1.06,.44,.82-.04,1.49-.66,1.5-1.5,0-1.05,0-2.11-.04-3.16-.02-.75-.55-1.37-1.3-1.47-.7-.09-1.49,.34-1.65,1.07-.28,1.32-.28,2.64,.03,3.95,.18,.76,1.09,1.29,1.85,1.05,.8-.26,1.24-1.03,1.05-1.85-.05-.22-.1-.45-.13-.68l.05,.4c-.08-.63-.09-1.26,0-1.89l-.05,.4c.03-.2,.06-.4,.1-.59l-2.95-.4c.03,1.05,.05,2.11,.04,3.16h3c-.08-.93-.06-1.85,.06-2.77l-.05,.4c.09-.63,.22-1.26,.39-1.87,.22-.75-.26-1.67-1.05-1.85s-1.61,.24-1.85,1.05h0Z"/><path class="cls-6" d="M344.95,88.99l1.39,.51,.65,.24,.33,.12,.16,.06c.22,.08,.11,.03-.32-.17l-.39-.66,.02,.1v-.8c.08-.3,.24-.51,.49-.61l-.16,.06c-.16,.05-.32,.11-.47,.16-.32,.1-.64,.2-.96,.29-.64,.18-1.3,.32-1.95,.44-.62,.11-1.13,.83-1.1,1.45,.03,.7,.45,1.21,1.1,1.45l3.69,1.35,.8-2.89c-1.12-.37-2.26-.58-3.43-.71-1.46-.16-2.08,2.19-.76,2.8,.64,.29,1.27,.62,1.87,.99s1.11,.74,1.54,1.1l.66-2.51c-.37,.14-.74,.25-1.13,.33-.36,.07-.48,.08-.94,.09-1.69,.04-2.04,2.47-.4,2.95,.84,.25,1.31,.45,2.06,.89l.76-2.8-2.74,.23c-.75,.06-1.37,.52-1.47,1.3-.1,.71,.34,1.47,1.07,1.65,.14,.03,.29,.07,.43,.12,.09,.03,.19,.06,.28,.1-.11-.05-.12-.05-.02,0,.29,.14,.56,.31,.81,.51l.36-2.74-1.27,.19c-.62,.09-1.13,.85-1.1,1.45,.03,.72,.46,1.18,1.1,1.45,.6,.25,1.21,.47,1.83,.64,.75,.22,1.67-.26,1.85-1.05s-.24-1.61-1.05-1.85c-.62-.18-1.23-.39-1.83-.64v2.89l1.27-.19c.57-.09,1-.73,1.07-1.25,.09-.64-.22-1.12-.72-1.49-.65-.49-1.42-.83-2.22-1.02l-.4,2.95,2.74-.23c.64-.05,1.29-.43,1.45-1.1s-.1-1.35-.69-1.69c-.87-.51-1.81-.91-2.78-1.19l-.4,2.95c.98-.02,1.95-.19,2.87-.53,.5-.19,.9-.51,1.05-1.05,.13-.48,.02-1.13-.39-1.46-1.23-1.02-2.56-1.9-4.02-2.56l-.76,2.8s.26,.03,.11,.01c.11,.01,.23,.03,.34,.05,.26,.04,.51,.09,.76,.15,.48,.11,.95,.24,1.41,.39,.75,.24,1.67-.28,1.85-1.05,.19-.85-.26-1.56-1.05-1.85l-3.69-1.35v2.89c.82-.15,1.63-.34,2.43-.58,.87-.26,1.95-.49,2.47-1.3,.34-.53,.4-1.24,.07-1.8-.3-.52-.79-.73-1.32-.93-.81-.3-1.63-.6-2.45-.89-.74-.27-1.68,.3-1.85,1.05-.19,.85,.26,1.56,1.05,1.85h0Z"/><path class="cls-6" d="M345.17,97.89c1.22,.39,2.51,.6,3.79,.63,.38,0,.8-.17,1.06-.44s.46-.69,.44-1.06c-.04-.83-.66-1.48-1.5-1.5-.45-.01-.89-.05-1.34-.11l.4,.05c-.7-.1-1.38-.25-2.05-.47-.75-.24-1.67,.28-1.85,1.05-.19,.82,.25,1.59,1.05,1.85h0Z"/><path class="cls-6" d="M345.63,98.28l3.41,.4c.36,.04,.82-.2,1.06-.44,.26-.26,.46-.69,.44-1.06s-.14-.79-.44-1.06l-.3-.23c-.23-.14-.49-.2-.76-.2l-3.41-.4c-.36-.04-.82,.2-1.06,.44-.26,.26-.46,.69-.44,1.06s.14,.79,.44,1.06l.3,.23c.23,.14,.49,.2,.76,.2h0Z"/><path class="cls-6" d="M344.69,98.44c.5,.12,1,.23,1.51,.33,.47,.1,.99,.13,1.43,.32l-.36-.15c.07,.04,.14,.08,.2,.13l-.3-.23c.22,.18,.41,.4,.58,.62l-.23-.3c.24,.32,.44,.67,.6,1.05l-.15-.36c.15,.38,.26,.76,.32,1.17l-.05-.4c.03,.23,.05,.45,.04,.68,0,.78,.69,1.54,1.5,1.5s1.5-.66,1.5-1.5c0-1.53-.57-2.97-1.55-4.13-.26-.3-.57-.59-.91-.79-.38-.21-.78-.28-1.2-.36-.71-.14-1.42-.29-2.13-.46-.76-.18-1.66,.23-1.85,1.05-.17,.76,.23,1.66,1.05,1.85h0Z"/><path class="cls-1" d="M1004.3,73.74c0,14.42,3.35,26.11,13.93,26.11s24.37-11.69,24.37-26.11-13.79-27.85-24.37-27.85-13.93,13.43-13.93,27.85Z"/><path class="cls-6" d="M1012.57,43.43c-3.89,5.66-6.95,11.84-9.15,18.35-.63,1.85,2.21,2.57,2.89,.8l6.11-15.95c.66-1.72-1.81-2.4-2.74-1.16-3.03,4.06-4.42,9.01-5.31,13.93-1.02,5.64-1.78,11.32-2.65,16.98l2.95,.4,1.88-20.54c.09-.97-1.03-1.7-1.9-1.45-2.41,.71-2.19,3.67-2.31,5.67-.19,3.02-.28,6.04-.28,9.07,0,5.46,0,11.24,2.11,16.37,.62,1.51,2.87,1.4,2.95-.4,.27-6.77-.12-13.52-1.1-20.22-.23-1.59-2.47-1.25-2.89,0-.98,2.85-1.81,5.76-2.46,8.7s-1.08,5.87-.63,8.82c.82,5.32,4.96,9.04,7.41,13.6l2.59-1.51-7.4-13.65-2.36,1.82c5.11,4.27,7.17,10.77,9.05,16.93,.44,1.42,2.46,1.43,2.89,0,.76-2.48,1.07-5.05,.92-7.64l-2.95,.4c.56,3.12,1.23,6.21,2.03,9.27,.35,1.35,2.64,1.5,2.89,0,.31-1.84,.47-3.68,.43-5.54s-3.04-1.93-3,0c.03,1.59-.06,3.17-.32,4.75h2.89c-.8-3.06-1.48-6.15-2.03-9.27-.3-1.66-3.05-1.28-2.95,.4,.14,2.35-.12,4.59-.81,6.84h2.89c-2.02-6.62-4.33-13.66-9.82-18.25-1.27-1.06-3.21,.25-2.36,1.82l7.4,13.65c.92,1.7,3.5,.19,2.59-1.51-2.23-4.16-6.16-7.64-7.03-12.43-.49-2.69,.05-5.5,.65-8.13,.64-2.79,1.43-5.54,2.36-8.25h-2.89c.94,6.43,1.26,12.93,.99,19.42l2.95-.4c-1.77-4.33-1.92-9-1.99-13.61-.03-2.45,0-4.9,.08-7.36,.05-1.23,.11-2.45,.18-3.67,.04-.65,.08-1.31,.14-1.96,0-.22,.03-.45,.07-.67,.15-.32,.12-.37-.09-.16l-1.9-1.45-1.88,20.54c-.15,1.67,2.69,2.07,2.95,.4,.85-5.53,1.61-11.07,2.58-16.58,.85-4.83,2.1-9.63,5.08-13.61l-2.74-1.16-6.11,15.95,2.89,.8c2.12-6.27,5.1-12.18,8.85-17.63,1.1-1.6-1.5-3.1-2.59-1.51h0Z"/><path class="cls-6" d="M1015.46,51.98c.84,.68,1.74,1.1,2.7,1.58,.33,.16,.91,.38,1.11,.73,.24,.42-.02,1.08-.11,1.5-.68,3.15-1.37,6.3-2.06,9.46l2.89,.8c.81-4.35,1.05-8.74,.67-13.15-.17-1.96-2.76-1.9-3,0-1.18,9.23-.76,18.57,1.16,27.67,.36,1.73,2.85,1.22,2.95-.4,.35-6.07,.55-12.15,.6-18.23,.01-1.59-1.98-1.91-2.8-.76-3.17,4.45-3.48,10.08-3.51,15.36-.03,5.95,.02,12.03,1.95,17.73,.57,1.67,2.75,1.26,2.95-.4,.63-5.39,.4-10.79-.59-16.12-.27-1.44-2.61-1.42-2.89,0-.88,4.38-2.06,8.8-2.61,13.23-.22,1.81,0,3.76,1.42,5.05,1.26,1.15,2.94,1.44,4.46,.66,1.72-.88,.2-3.47-1.51-2.59-1.08,.56-1.47-1.45-1.46-2.05,.02-1.45,.47-2.93,.75-4.35l1.85-9.16h-2.89c.94,5.06,1.07,10.21,.48,15.32l2.95-.4c-1.81-5.33-1.86-10.95-1.85-16.53,.01-4.91,.14-10.1,3.1-14.25l-2.8-.76c-.06,6.08-.26,12.16-.6,18.23l2.95-.4c-1.87-8.84-2.2-17.92-1.06-26.87h-3c.36,4.13,.19,8.27-.56,12.35-.35,1.88,2.48,2.7,2.89,.8l1.24-5.67c.38-1.76,1-3.61,1.12-5.42,.09-1.4-.54-2.58-1.66-3.39-.96-.69-2.19-.96-3.1-1.71-1.48-1.21-3.62,.9-2.12,2.12h0Z"/><path class="cls-6" d="M1020.03,93.37l-.39-2.05c-.05-.2-.14-.37-.27-.51-.11-.16-.25-.29-.42-.39-.17-.11-.36-.17-.56-.18-.2-.04-.4-.04-.6,.03-.36,.12-.71,.34-.9,.69l-.15,.36c-.07,.27-.07,.53,0,.8l.39,2.05c.05,.2,.14,.37,.27,.51,.11,.16,.25,.29,.42,.39,.17,.11,.36,.17,.56,.18,.2,.04,.4,.04,.6-.03,.36-.12,.71-.34,.9-.69l.15-.36c.07-.27,.07-.53,0-.8h0Z"/><path class="cls-6" d="M1018.15,59.14c-.02-.11,.02-.61,.04-.73,.07-.4,.18-.78,.27-1.17,.2-.82,.35-1.67,.28-2.51-.07-.76-.28-1.66-.37-2.32-.02-.18-.04-.37-.04-.56,0-.12,0-.25,0-.37l-.02,.12c.05-.17,.04-.18-.01-.03l-.52,.38c-.2,.05-.4,.02-.59-.09-.28-.36-.35-.42-.23-.2,.31,.63,1.07,.8,1.69,.69-.18,.03,.27,0,.27,0,.36,0-.08-.05,.27,.05,.21,.06,.42,.18,.69,.38,.8,.61,1.96-.06,2.2-.9,.35-1.22-.32-2.42-1.4-3.01-.55-.3-1.16-.39-1.78-.4-.26,0-.52,.02-.78,.03-.13,0-.26,0-.39,0-.3-.03-.26,0,.14,.06l.69,.9-.04-.11v.8l.03-.09-.69,.9c-.09,.03-.17,.06-.26,.08l.4-.03,.81-.05,1.62-.11c.74-.05,1.38-.53,1.47-1.3,.08-.66-.33-1.54-1.07-1.65l-2.78-.38c-.8-.11-1.61,.19-1.85,1.05-.19,.7,.24,1.73,1.05,1.85l2.78,.38,.4-2.95-2.63,.18c-.5,.03-.98,.05-1.41,.31-.6,.36-.96,1.12-.76,1.81,.35,1.24,1.59,1.38,2.69,1.34,.31-.01,.65-.07,.91,0-.23-.06,.19,.12,.02,0,.13,.13,.14,.15,.04,.05-.08-.15-.11-.31-.1-.47l2.2-.9c-1.02-.78-2.31-.95-3.54-.73l1.69,.69c-.61-1.25-2.44-1.56-3.43-.6s-.84,2.48-.63,3.73c.08,.48,.22,1.07,.25,1.46,.05,.57,.01,.91-.11,1.44-.29,1.28-.59,2.45-.37,3.77,.13,.8,1.12,1.25,1.85,1.05,.85-.23,1.18-1.04,1.05-1.85h0Z"/><path class="cls-6" d="M1012.13,43.56l-.07,3.3-.04,1.6c0,.26,0,.52-.02,.78,0,.1,0,.21-.02,.31,.05-.28-.15,.2-.02-.04h2.59c-.34-.73-.7-1.46-1.07-2.18-.61-1.15-2.42-.86-2.74,.36-.38,1.46-.57,2.99-.55,4.5,.02,1.06,1.29,1.98,2.26,1.3,1.54-1.09,2.33-2.95,2.87-4.7s.83-3.49,1.2-5.24h-2.89c.37,1.67,.56,3.01,.65,4.7,.04,.78,.66,1.54,1.5,1.5,.78-.03,1.55-.66,1.5-1.5-.1-1.85-.36-3.69-.76-5.49-.32-1.42-2.59-1.44-2.89,0-.34,1.6-.63,3.21-1.07,4.79-.11,.38-.22,.76-.35,1.13-.14,.4-.19,.52-.33,.8-.16,.32-.33,.64-.53,.94-.05,.08-.1,.16-.16,.23,.09-.11,.08-.11-.03,.03-.04,.05-.44,.39-.22,.23l2.26,1.3c-.02-1.38,.1-2.39,.44-3.7l-2.74,.36c.38,.72,.73,1.44,1.07,2.18,.48,1.03,2.08,.92,2.59,0,.62-1.13,.46-2.56,.49-3.8l.08-3.65c.02-.78-.7-1.54-1.5-1.5s-1.48,.66-1.5,1.5h0Z"/><path class="cls-6" d="M1014.81,43.02c.06,.67,.12,1.35,.19,2.02,.04,.42,.07,.86,.2,1.27,.14,.44,.35,.79,.63,1.15,.45,.58,.95,1.13,1.57,1.54,.54,.36,1.2,.58,1.79,.84,.38,.17,.74,.27,1.16,.15,.35-.1,.73-.36,.9-.69,.34-.65,.23-1.72-.54-2.05-.53-.23-1.08-.44-1.58-.71-.07-.04-.14-.09-.21-.13-.16-.08,.21,.19,.08,.06-.09-.09-.19-.17-.28-.26-.2-.2-.37-.42-.56-.62-.13-.14,.16,.25,.07,.09-.03-.05-.07-.1-.1-.15s-.1-.23-.03-.02c.08,.24,0-.04-.02-.09-.02-.06-.03-.13-.04-.19-.05-.2,0,.03,0,.11,0-.15-.03-.3-.04-.45l-.17-1.86c-.04-.41-.14-.76-.44-1.06-.26-.26-.69-.46-1.06-.44-.75,.03-1.58,.66-1.5,1.5h0Z"/><path class="cls-6" d="M1020.69,94.63c-.09,.09-.18,.18-.28,.27-.29,.25,.16-.08-.1,.07-.04,.03-.56,.36-.58,.33,.19-.08,.2-.08,.05-.02l-.11,.04c-.12,.04-.25,.08-.38,.11-.09,.02-.5,.14-.1,.04-.12,.03-.26,.02-.38,.03-1.26,.05-2.5-.05-3.56,.77-1.11,.86-1.22,2.14-1.23,3.45,0,1.14,.06,2.34,.51,3.41,.15,.36,.32,.7,.69,.9s.76,.26,1.16,.15c.74-.21,1.22-.83,1.33-1.58,.06-.44,.04-.87,.04-1.31,0-.4,0-.8,.03-1.2,0-.1,.01-.2,.02-.3,0-.06,.01-.12,.02-.18l-.02,.17c-.05-.13,.09-.5,.13-.63,.02-.09,.05-.19,.08-.28,.01-.04,.13-.35,.05-.15s.05-.1,.07-.14c.04-.08,.1-.16,.14-.24,.08-.15-.2,.19,0,.01-.06,.07-.13,.11-.21,.14-.12,.04-.11,.04,.02,0-.18,.03-.23,.02-.02,.02,.09,0,.19,0,.28,.01,.99,.07,1.95,.03,2.91-.24l-1.69-2.2c-.17,.32,.53-.4,.29-.27-.14,.08,.36-.12,.08-.05,.07-.02,.33-.02,.12-.02-.08,0-.16,0-.23,0-.39-.01-.78-.05-1.18-.01-1.01,.09-1.97,.39-2.71,1.1s-.99,1.62-1.02,2.58c-.01,.36,.01,.72,.01,1.07,0,.09,0,.19,0,.28,0,.04,0,.07,0,.11,0,.12,0,.07,.02-.12-.08,.1-.1,.4-.15,.53-.29,.73,.32,1.68,1.05,1.85,.86,.2,1.54-.26,1.85-1.05,.29-.74,.24-1.55,.23-2.33,0-.17,0-.33,.01-.5,.01-.29-.06,.19,0,.02,.02-.06,.04-.14,.05-.21,.03-.11,.02-.07-.05,.11l.05-.1,.05-.09-.11,.13s.16-.16,.18-.19c.11-.13-.28,.16,0,.01,.06-.03,.12-.07,.18-.1,.24-.14-.18,.04-.02,0,.07-.02,.14-.04,.21-.06,.14-.04,.26-.06,.05-.03,.38-.06,.78-.03,1.17,0,.95,.05,2-.23,2.47-1.14,.28-.54,.26-1.17-.12-1.67s-.99-.7-1.58-.54c-.21,.06-.42,.1-.63,.14-.41,.08,.3-.01-.11,.01-.11,0-.22,.02-.32,.02-.43,.01-.84-.05-1.27-.06-1.2-.02-2.15,.65-2.66,1.71-.43,.91-.61,1.85-.67,2.85-.02,.4-.03,.8-.03,1.2,0,.22,0,.44,0,.66,0,.1,0,.2,0,.3v.08c0-.48,.28-.82,.84-1.03l1.85,1.05c-.09-.23-.18-.45-.24-.69-.03-.12-.06-.24-.08-.36-.01-.06-.02-.12-.03-.18-.02-.11-.01-.08,.01,.1-.08-.2-.05-.52-.05-.74,0-.25-.01-.49,0-.74s0-.48,.01-.72c0-.1-.02-.26,.02-.34l-.02,.18c0-.05,.02-.11,.04-.16,.01-.05,.03-.11,.05-.16-.08,.17-.09,.21-.04,.11,.08-.13-.2,.25,.02-.02,.08-.07,.05-.05-.1,.08,.04-.03,.09-.06,.13-.08,.04-.03,.09-.05,.14-.07-.18,.08-.22,.09-.11,.06,.08-.02,.17-.04,.25-.07,.3-.09-.3,0,.04,0,.27,0,.54-.02,.81-.01,.59,0,1.18-.03,1.76-.16,1.04-.24,2.02-.82,2.77-1.58,.55-.56,.6-1.57,0-2.12s-1.53-.6-2.12,0h0Z"/><rect class="cls-8" x="1224.95" y="13.89" width="57.44" height="22.63"/><rect class="cls-8" x="1236.18" y="38.26" width="37.52" height="22.63"/><rect class="cls-8" x="1224.95" y="62.63" width="57.44" height="22.63"/><rect class="cls-8" x="1236.18" y="87" width="37.52" height="22.63"/><rect class="cls-8" x="1224.95" y="111.37" width="57.44" height="22.63"/><rect class="cls-5" x="1177.09" y="13.89" width="46.34" height="22.63"/><rect class="cls-5" x="1188.19" y="38.26" width="46.34" height="22.63"/><rect class="cls-5" x="1177.09" y="62.63" width="46.34" height="22.63"/><rect class="cls-5" x="1188.19" y="87" width="46.34" height="22.63"/><rect class="cls-5" x="1177.09" y="111.37" width="46.34" height="22.63"/><rect class="cls-8" x="1128.35" y="38.26" width="57.44" height="22.63"/><rect class="cls-8" x="1134.29" y="13.89" width="40.94" height="22.63"/><rect class="cls-8" x="1134.36" y="62.63" width="40.94" height="22.63"/><rect class="cls-8" x="1129.22" y="87" width="57.44" height="22.63"/><rect class="cls-8" x="1134.36" y="111.37" width="40.94" height="22.63"/><rect class="cls-5" x="1071.77" y="13.7" width="61.25" height="22.63"/><rect class="cls-5" x="1085.7" y="38.07" width="41.23" height="22.63"/><rect class="cls-5" x="1093.53" y="62.66" width="39.58" height="22.63"/><rect class="cls-5" x="1082.22" y="87.03" width="45.67" height="22.63"/><rect class="cls-5" x="1071.77" y="111.3" width="61.22" height="22.63"/><rect class="cls-8" x="83.71" y="13.36" width="57.44" height="22.63" transform="translate(224.86 49.34) rotate(180)"/><rect class="cls-8" x="92.41" y="37.73" width="37.52" height="22.63" transform="translate(222.34 98.08) rotate(180)"/><rect class="cls-8" x="83.71" y="62.09" width="57.44" height="22.63" transform="translate(224.86 146.82) rotate(180)"/><rect class="cls-8" x="92.41" y="86.46" width="37.52" height="22.63" transform="translate(222.34 195.56) rotate(180)"/><rect class="cls-8" x="83.71" y="110.83" width="57.44" height="22.63" transform="translate(224.86 244.3) rotate(180)"/><rect class="cls-5" x="142.69" y="13.36" width="46.34" height="22.63" transform="translate(331.71 49.34) rotate(180)"/><rect class="cls-5" x="131.58" y="37.73" width="46.34" height="22.63" transform="translate(309.5 98.08) rotate(180)"/><rect class="cls-5" x="142.69" y="62.09" width="46.34" height="22.63" transform="translate(331.71 146.82) rotate(180)"/><rect class="cls-5" x="131.58" y="86.46" width="46.34" height="22.63" transform="translate(309.5 195.56) rotate(180)"/><rect class="cls-5" x="142.69" y="110.83" width="46.34" height="22.63" transform="translate(331.71 244.3) rotate(180)"/><rect class="cls-8" x="180.32" y="37.73" width="57.44" height="22.63" transform="translate(418.08 98.08) rotate(180)"/><rect class="cls-8" x="190.88" y="13.36" width="40.94" height="22.63" transform="translate(422.69 49.34) rotate(180)"/><rect class="cls-8" x="190.81" y="62.09" width="40.94" height="22.63" transform="translate(422.56 146.82) rotate(180)"/><rect class="cls-8" x="179.45" y="86.46" width="57.44" height="22.63" transform="translate(416.34 195.56) rotate(180)"/><rect class="cls-8" x="190.82" y="110.83" width="40.94" height="22.63" transform="translate(422.57 244.3) rotate(180)"/><rect class="cls-5" x="233.09" y="13.17" width="61.5" height="22.63" transform="translate(527.67 48.96) rotate(180)"/><rect class="cls-5" x="239.18" y="37.53" width="40.61" height="22.63" transform="translate(518.97 97.7) rotate(180)"/><rect class="cls-5" x="233" y="62.12" width="39.58" height="22.63" transform="translate(505.57 146.88) rotate(180)"/><rect class="cls-5" x="238.22" y="86.49" width="45.67" height="22.63" transform="translate(522.11 195.62) rotate(180)"/><rect class="cls-5" x="233.11" y="110.77" width="61.22" height="22.63" transform="translate(527.45 244.16) rotate(180)"/><g class="cls-14"><g><rect class="cls-10" x="146.22" y="40.68" width="98.61" height="66.98" transform="translate(-12.98 90.21) rotate(-25.17)"/><polygon class="cls-9" points="254.39 83.51 231.91 94.07 208.93 104.87 197.85 81.3 180.44 44.26 227.26 69.53 254.39 83.51"/><rect class="cls-9" x="148.61" y="51.36" width="48.37" height="66.98" transform="translate(-19.68 81.55) rotate(-25.17)"/><polygon class="cls-10" points="165.15 125.45 186.79 115.28 208.93 104.87 197.85 81.3 180.44 44.26 171.08 95.94 165.15 125.45"/><polygon class="cls-2" points="225.9 22.89 203.42 33.46 180.44 44.26 186.59 57.35 196.27 77.93 214.78 42.97 225.9 22.89"/><polygon class="cls-4" points="136.66 64.83 158.31 54.66 180.44 44.26 186.59 57.35 196.27 77.93 158.59 69.37 136.66 64.83"/></g><path class="cls-11" d="M206.02,82.5h0c-1.77-.05-3.2,1.43-3.07,3.2h0c.2,2.8-3.23,4.3-5.15,2.26h0c-1.21-1.29-3.27-1.25-4.43,.09h0c-1.84,2.12-5.33,.76-5.24-2.05h0c.05-1.77-1.43-3.2-3.2-3.07h0c-2.8,.2-4.3-3.23-2.26-5.15h0c1.29-1.21,1.25-3.27-.09-4.43h0c-2.12-1.84-.76-5.33,2.05-5.24h0c1.77,.05,3.2-1.43,3.07-3.2h0c-.2-2.8,3.23-4.3,5.15-2.26h0c1.21,1.29,3.27,1.25,4.43-.09h0c1.84-2.12,5.33-.76,5.24,2.05h0c-.05,1.77,1.43,3.2,3.2,3.07h0c2.8-.2,4.3,3.23,2.26,5.15h0c-1.29,1.21-1.25,3.27,.09,4.43h0c2.12,1.84,.76,5.33-2.05,5.24Z"/><path class="cls-10" d="M186.28,72.29l4.57-2.15c.2,.16,.34,.34,.44,.55,.09,.2,.12,.36,.08,.47-.04,.11-.15,.21-.32,.29l-.68,.32c.3,.73,.85,1.92,1.64,3.59l4.39-2.06c-.79-1.67-1.37-2.85-1.74-3.54l-1,.47c-.22-.2-.38-.41-.48-.63-.07-.16-.08-.29-.03-.4,.05-.11,.16-.2,.34-.28l4.57-2.15c.2,.16,.34,.34,.44,.55,.09,.2,.12,.36,.08,.47-.04,.11-.14,.21-.31,.28l-.77,.36c.3,.73,.83,1.91,1.61,3.54,1.41,3,2.3,4.85,2.67,5.55l1.09-.51c.19,.15,.34,.34,.44,.55,.09,.19,.12,.35,.08,.46-.04,.11-.14,.21-.31,.29l-4.6,2.16c-.21-.2-.38-.41-.48-.64-.07-.15-.08-.28-.03-.39,.05-.11,.17-.2,.34-.29l.65-.3c-.25-.6-.88-1.98-1.88-4.15l-4.39,2.06c1.02,2.16,1.68,3.53,1.98,4.1l1.01-.47c.19,.15,.34,.34,.44,.55,.09,.19,.12,.35,.08,.46-.04,.11-.15,.21-.32,.29l-4.6,2.16c-.22-.19-.38-.41-.49-.63-.07-.15-.08-.28-.02-.39,.05-.11,.17-.21,.34-.29l.73-.34c-.3-.72-1.17-2.59-2.58-5.6-.77-1.62-1.34-2.78-1.7-3.48l-1.09,.51c-.22-.2-.38-.4-.49-.63-.07-.16-.08-.29-.03-.4,.06-.11,.17-.21,.34-.29Z"/></g><g><g><rect class="cls-10" x="154.75" y="43.87" width="98.61" height="66.98" transform="translate(-13.52 94.14) rotate(-25.17)"/><polygon class="cls-9" points="262.92 86.69 240.44 97.26 217.46 108.06 206.38 84.49 188.97 47.44 235.8 72.72 262.92 86.69"/><rect class="cls-9" x="157.14" y="54.55" width="48.37" height="66.98" transform="translate(-20.23 85.49) rotate(-25.17)"/><polygon class="cls-10" points="173.68 128.64 195.33 118.46 217.46 108.06 206.38 84.49 188.97 47.44 179.61 99.13 173.68 128.64"/><polygon class="cls-2" points="234.43 26.08 211.96 36.64 188.97 47.44 195.13 60.54 204.8 81.12 223.31 46.15 234.43 26.08"/><polygon class="cls-4" points="145.19 68.02 166.84 57.84 188.97 47.44 195.13 60.54 204.8 81.12 167.12 72.56 145.19 68.02"/></g><path class="cls-11" d="M214.55,85.69h0c-1.77-.05-3.2,1.43-3.07,3.2h0c.2,2.8-3.23,4.3-5.15,2.26h0c-1.21-1.29-3.27-1.25-4.43,.09h0c-1.84,2.12-5.33,.76-5.24-2.05h0c.05-1.77-1.43-3.2-3.2-3.07h0c-2.8,.2-4.3-3.23-2.26-5.15h0c1.29-1.21,1.25-3.27-.09-4.43h0c-2.12-1.84-.76-5.33,2.05-5.24h0c1.77,.05,3.2-1.43,3.07-3.2h0c-.2-2.8,3.23-4.3,5.15-2.26h0c1.21,1.29,3.27,1.25,4.43-.09h0c1.84-2.12,5.33-.76,5.24,2.05h0c-.05,1.77,1.43,3.2,3.2,3.07h0c2.8-.2,4.3,3.23,2.26,5.15h0c-1.29,1.21-1.25,3.27,.09,4.43h0c2.12,1.84,.76,5.33-2.05,5.24Z"/><path class="cls-10" d="M194.81,75.48l4.57-2.15c.2,.16,.34,.34,.44,.55,.09,.2,.12,.36,.08,.47-.04,.11-.15,.21-.32,.29l-.68,.32c.3,.72,.85,1.92,1.64,3.59l4.39-2.06c-.79-1.67-1.37-2.85-1.74-3.54l-1,.47c-.22-.2-.37-.41-.48-.63-.07-.16-.08-.29-.03-.4,.05-.11,.17-.2,.34-.28l4.57-2.15c.2,.16,.34,.34,.44,.55,.09,.2,.12,.36,.08,.47-.04,.11-.14,.21-.31,.28l-.77,.36c.3,.73,.84,1.91,1.61,3.54,1.41,3,2.3,4.85,2.67,5.55l1.09-.51c.19,.15,.34,.34,.44,.55,.09,.19,.12,.35,.08,.46-.04,.11-.14,.21-.31,.29l-4.6,2.16c-.21-.2-.38-.41-.48-.64-.07-.15-.08-.28-.03-.39,.05-.11,.16-.2,.34-.29l.64-.3c-.25-.6-.88-1.99-1.88-4.15l-4.39,2.06c1.02,2.16,1.68,3.52,1.98,4.1l1.01-.47c.19,.15,.34,.34,.44,.55,.09,.19,.12,.35,.08,.46s-.15,.21-.32,.29l-4.59,2.16c-.22-.19-.38-.4-.49-.63-.07-.15-.08-.28-.02-.39,.06-.11,.17-.21,.34-.29l.73-.34c-.3-.72-1.16-2.59-2.58-5.6-.77-1.62-1.34-2.79-1.7-3.48l-1.09,.51c-.22-.2-.38-.4-.49-.62-.07-.16-.08-.29-.03-.4,.06-.11,.17-.21,.34-.29Z"/></g><rect class="cls-5" x="33.33" y="37.43" width="57.44" height="22.63" transform="translate(124.1 97.49) rotate(180)"/><rect class="cls-5" x="33.7" y="86.74" width="57.44" height="22.63" transform="translate(124.84 196.12) rotate(180)"/><rect class="cls-5" x="44.66" y="110.74" width="37.52" height="22.63" transform="translate(126.84 244.12) rotate(180)"/><rect class="cls-5" x="44.66" y="61.74" width="37.52" height="22.63" transform="translate(126.84 146.12) rotate(180)"/><rect class="cls-5" x="44.66" y="12.74" width="37.52" height="22.63" transform="translate(126.84 48.12) rotate(180)"/><rect class="cls-5" x="1275.27" y="38.22" width="57.44" height="22.63"/><rect class="cls-5" x="1275.27" y="87.22" width="57.44" height="22.63"/><g class="cls-14"><circle class="cls-11" cx="1186.25" cy="84.88" r="20.3"/><path class="cls-3" d="M1204.72,93.31c-4.65,10.2-16.01,15.02-26.21,10.37-.68-.31,3.46-7.59,8.11-17.79,4.65-10.2,7.36-19.78,8.05-19.47,10.2,4.65,14.7,16.69,10.05,26.89Z"/><path class="cls-6" d="M1281.42,95.42c2.89,1.32-31.4,9.24-49.37,1.05-17.96-8.19-32.24-24.51-28.58-29.22,4.22-5.44,21.46-4.94,36.97,5.07,16.51,10.66,34.59,20.18,40.98,23.1Z"/><path class="cls-7" d="M1263.97,99.24c4.88,1.05-22.44,3.67-37.69-5.4-15.8-9.39-25.87-23.22-22.8-26.59,2.27-2.49,13.57,4.71,28.91,13.18,15.35,8.47,27.76,17.99,31.58,18.81Z"/><path class="cls-6" d="M1114.65,19.93c-2.89-1.32,13.62,29.77,31.59,37.95,17.96,8.19,39.65,8.26,40.81,2.4,1.33-6.75-10.34-19.44-28.08-24.58-18.88-5.47-37.92-12.87-44.31-15.78Z"/><path class="cls-7" d="M1123.22,35.61c-3.99-2.99,11.95,19.34,28.8,24.91,17.45,5.76,34.5,4.3,35.02-.23,.39-3.35-12.45-7.15-28.91-13.18s-31.78-9.15-34.91-11.5Z"/></g><g><circle class="cls-11" cx="1181.12" cy="88.06" r="20.3"/><path class="cls-3" d="M1199.6,96.48c-4.65,10.2-16.01,15.02-26.21,10.37-.68-.31,3.46-7.59,8.11-17.79,4.65-10.2,7.36-19.78,8.05-19.47,10.2,4.65,14.7,16.69,10.05,26.89Z"/><path class="cls-6" d="M1276.3,98.59c2.89,1.32-31.4,9.24-49.37,1.05-17.96-8.19-32.24-24.51-28.58-29.22,4.22-5.44,21.46-4.94,36.97,5.07,16.51,10.66,34.59,20.18,40.98,23.1Z"/><path class="cls-7" d="M1258.85,102.41c4.88,1.05-22.44,3.67-37.69-5.4-15.8-9.39-25.87-23.22-22.8-26.59,2.27-2.49,13.57,4.71,28.91,13.18,15.35,8.47,27.76,17.99,31.58,18.81Z"/><path class="cls-6" d="M1109.53,23.11c-2.89-1.32,13.62,29.77,31.59,37.95,17.96,8.19,39.65,8.26,40.81,2.4,1.33-6.75-10.34-19.44-28.08-24.58-18.88-5.47-37.92-12.87-44.31-15.78Z"/><path class="cls-7" d="M1118.09,38.79c-3.99-2.99,11.95,19.34,28.8,24.91,17.45,5.76,34.5,4.3,35.02-.23,.39-3.35-12.45-7.15-28.91-13.18-16.46-6.03-31.78-9.15-34.91-11.5Z"/></g><rect class="cls-5" x="1284.23" y="13.22" width="37.52" height="22.63"/><rect class="cls-5" x="1284.32" y="62.15" width="37.52" height="22.63"/><rect class="cls-5" x="1284.32" y="111.15" width="37.52" height="22.63"/></g></g></svg>